<svg xmlns="http://www.w3.org/2000/svg" xmlns:xlink="http://www.w3.org/1999/xlink" viewBox="0 0 602.59 365.18"><defs><style>.cls-1{fill:none;}.cls-2{isolation:isolate;}.cls-3,.cls-34,.cls-35,.cls-36,.cls-37,.cls-38,.cls-39{fill:#fff;}.cls-11,.cls-12,.cls-13,.cls-14,.cls-20,.cls-21,.cls-22,.cls-4{mix-blend-mode:multiply;opacity:0.7;}.cls-4{fill:url(#linear-gradient);}.cls-15,.cls-5{mix-blend-mode:screen;}.cls-5{fill:url(#linear-gradient-2);}.cls-6{fill:url(#linear-gradient-3);}.cls-7{fill:url(#linear-gradient-4);}.cls-8{fill:url(#linear-gradient-5);}.cls-9{fill:url(#linear-gradient-6);}.cls-10{fill:#d3d3d3;}.cls-11{fill:url(#linear-gradient-7);}.cls-12{fill:url(#linear-gradient-8);}.cls-13{fill:url(#linear-gradient-9);}.cls-14{fill:url(#linear-gradient-10);}.cls-15{fill:url(#linear-gradient-11);}.cls-16{fill:url(#linear-gradient-12);}.cls-17{fill:url(#linear-gradient-13);}.cls-18{fill:url(#linear-gradient-14);}.cls-19{fill:url(#linear-gradient-15);}.cls-20{fill:url(#linear-gradient-16);}.cls-21{fill:url(#linear-gradient-17);}.cls-22{fill:url(#linear-gradient-18);}.cls-23{fill:#701714;}.cls-24{clip-path:url(#clip-path);}.cls-25{fill:url(#linear-gradient-19);}.cls-26{fill:#090a0d;}.cls-27{fill:url(#linear-gradient-20);}.cls-28,.cls-34{font-size:12.84px;}.cls-28,.cls-29,.cls-30,.cls-31,.cls-32,.cls-33{fill:#fae8d5;}.cls-28,.cls-29,.cls-30,.cls-31,.cls-32,.cls-33,.cls-34,.cls-35,.cls-36,.cls-37,.cls-38,.cls-39{font-family:BebasNeue-Bold, BebasNeue Bold;font-weight:700;}.cls-29,.cls-35{font-size:12.84px;}.cls-30,.cls-36{font-size:12.84px;}.cls-31,.cls-37{font-size:12.84px;}.cls-32,.cls-38{font-size:12.84px;}.cls-33,.cls-39{font-size:12.84px;}.cls-40{fill:url(#linear-gradient-21);}.cls-41{fill:url(#linear-gradient-22);}.cls-42{fill:url(#linear-gradient-23);}.cls-43{fill:url(#linear-gradient-24);}.cls-44{fill:url(#linear-gradient-25);}.cls-45{fill:url(#linear-gradient-26);}.cls-46{fill:url(#linear-gradient-27);}.cls-47{fill:url(#linear-gradient-28);}.cls-48{fill:url(#linear-gradient-29);}.cls-49{fill:url(#linear-gradient-30);}.cls-50{fill:url(#linear-gradient-31);}.cls-51{fill:url(#linear-gradient-32);}.cls-52{fill:url(#linear-gradient-33);}.cls-53{fill:url(#linear-gradient-34);}.cls-54{fill:url(#linear-gradient-35);}.cls-55{fill:url(#linear-gradient-36);}</style><linearGradient id="linear-gradient" x1="2906.3" y1="1824.66" x2="2906.3" y2="1932.71" gradientTransform="matrix(-0.82, -0.58, -0.58, 0.82, 3872.73, 203.67)" gradientUnits="userSpaceOnUse"><stop offset="0" stop-color="#fff" stop-opacity="0"/><stop offset="1" stop-color="#939598"/></linearGradient><linearGradient id="linear-gradient-2" x1="2895.47" y1="1813.84" x2="2900.56" y2="1819.79" gradientTransform="matrix(-0.82, -0.58, -0.58, 0.82, 3872.73, 203.67)" gradientUnits="userSpaceOnUse"><stop offset="0" stop-color="#e7533c"/><stop offset="1" stop-color="#e7533c" stop-opacity="0"/></linearGradient><linearGradient id="linear-gradient-3" x1="2902.85" y1="1975.39" x2="2902.85" y2="2268.09" xlink:href="#linear-gradient"/><linearGradient id="linear-gradient-4" x1="2902.84" y1="1918.84" x2="2902.84" y2="2000.84" xlink:href="#linear-gradient"/><linearGradient id="linear-gradient-5" x1="4080.59" y1="233.67" x2="4236.1" y2="233.67" gradientTransform="matrix(-1, 0, 0, 1, 4496.9, 0)" xlink:href="#linear-gradient"/><linearGradient id="linear-gradient-6" x1="4126.62" y1="195.45" x2="4298.33" y2="195.45" gradientTransform="matrix(-1, 0, 0, 1, 4496.9, 0)" xlink:href="#linear-gradient"/><linearGradient id="linear-gradient-7" x1="2889" y1="1955.59" x2="2889" y2="2261.33" xlink:href="#linear-gradient"/><linearGradient id="linear-gradient-8" x1="2906.3" y1="2023.22" x2="2906.3" y2="2193.91" xlink:href="#linear-gradient"/><linearGradient id="linear-gradient-9" x1="2893.43" y1="1986.75" x2="2893.43" y2="2283.97" gradientTransform="matrix(-0.81, -0.59, -0.59, 0.81, 3869.76, 200.53)" xlink:href="#linear-gradient"/><linearGradient id="linear-gradient-10" x1="-273.08" y1="-420.02" x2="-273.08" y2="-311.97" gradientTransform="matrix(0.82, -0.58, 0.58, 0.82, 624.17, 203.67)" xlink:href="#linear-gradient"/><linearGradient id="linear-gradient-11" x1="-283.91" y1="-430.84" x2="-278.81" y2="-424.89" gradientTransform="matrix(0.82, -0.58, 0.58, 0.82, 624.17, 203.67)" xlink:href="#linear-gradient-2"/><linearGradient id="linear-gradient-12" x1="-276.52" y1="-269.29" x2="-276.52" y2="23.41" gradientTransform="matrix(0.82, -0.58, 0.58, 0.82, 624.17, 203.67)" xlink:href="#linear-gradient"/><linearGradient id="linear-gradient-13" x1="-276.53" y1="-325.84" x2="-276.53" y2="-243.84" gradientTransform="matrix(0.82, -0.58, 0.58, 0.82, 624.17, 203.67)" xlink:href="#linear-gradient"/><linearGradient id="linear-gradient-14" x1="188.66" y1="233.67" x2="344.16" y2="233.67" gradientTransform="matrix(1, 0, 0, 1, 0, 0)" xlink:href="#linear-gradient"/><linearGradient id="linear-gradient-15" x1="234.69" y1="195.45" x2="406.4" y2="195.45" gradientTransform="matrix(1, 0, 0, 1, 0, 0)" xlink:href="#linear-gradient"/><linearGradient id="linear-gradient-16" x1="-290.38" y1="-289.09" x2="-290.38" y2="16.65" gradientTransform="matrix(0.82, -0.58, 0.58, 0.82, 624.17, 203.67)" xlink:href="#linear-gradient"/><linearGradient id="linear-gradient-17" x1="-273.07" y1="-221.46" x2="-273.07" y2="-50.77" gradientTransform="matrix(0.82, -0.58, 0.58, 0.82, 624.17, 203.67)" xlink:href="#linear-gradient"/><linearGradient id="linear-gradient-18" x1="-261.42" y1="-292.08" x2="-261.42" y2="5.14" gradientTransform="matrix(0.81, -0.59, 0.59, 0.81, 627.14, 200.53)" xlink:href="#linear-gradient"/><clipPath id="clip-path"><rect class="cls-1" x="136.45" y="20.11" width="331.11" height="211.22"/></clipPath><linearGradient id="linear-gradient-19" x1="302.01" y1="-99.76" x2="302.01" y2="378.46" gradientTransform="translate(224.13 -157.35) rotate(45)" gradientUnits="userSpaceOnUse"><stop offset="0" stop-color="#6d6e71"/><stop offset="1" stop-color="#fff" stop-opacity="0"/></linearGradient><linearGradient id="linear-gradient-20" x1="292.4" y1="92.06" x2="308.32" y2="41.57" gradientUnits="userSpaceOnUse"><stop offset="0" stop-color="#a88b5c"/><stop offset="0.5" stop-color="#bca36e"/><stop offset="1" stop-color="#cdb87d"/></linearGradient><linearGradient id="linear-gradient-21" x1="302.01" y1="367.23" x2="302.01" y2="72.87" gradientTransform="matrix(1, 0, 0, 1, 0, 0)" xlink:href="#linear-gradient-19"/><linearGradient id="linear-gradient-22" x1="278.95" y1="186.04" x2="348.22" y2="186.04" gradientTransform="matrix(1, 0, 0, 1, 0, 0)" xlink:href="#linear-gradient-19"/><linearGradient id="linear-gradient-23" x1="29.55" y1="289.22" x2="29.55" y2="252.91" gradientTransform="matrix(1, 0, 0, 1, 0, 0)" xlink:href="#linear-gradient"/><linearGradient id="linear-gradient-24" x1="81.92" y1="289.22" x2="81.92" y2="252.91" gradientTransform="matrix(1, 0, 0, 1, 0, 0)" xlink:href="#linear-gradient"/><linearGradient id="linear-gradient-25" x1="414.27" y1="289.22" x2="414.27" y2="252.91" gradientTransform="matrix(1, 0, 0, 1, 0, 0)" xlink:href="#linear-gradient"/><linearGradient id="linear-gradient-26" x1="465.24" y1="290.69" x2="465.24" y2="252.91" gradientTransform="matrix(1, 0, 0, 1, 0, 0)" xlink:href="#linear-gradient"/><linearGradient id="linear-gradient-27" x1="517.91" y1="290.69" x2="517.91" y2="252.91" gradientTransform="matrix(1, 0, 0, 1, 0, 0)" xlink:href="#linear-gradient"/><linearGradient id="linear-gradient-28" x1="572.08" y1="289.22" x2="572.08" y2="252.91" gradientTransform="matrix(1, 0, 0, 1, 0, 0)" xlink:href="#linear-gradient"/><linearGradient id="linear-gradient-29" x1="134.88" y1="290.69" x2="134.88" y2="252.91" gradientTransform="matrix(1, 0, 0, 1, 0, 0)" xlink:href="#linear-gradient"/><linearGradient id="linear-gradient-30" x1="173.9" y1="289.22" x2="173.9" y2="252.91" gradientTransform="matrix(1, 0, 0, 1, 0, 0)" xlink:href="#linear-gradient"/><linearGradient id="linear-gradient-31" x1="198.25" y1="289.22" x2="198.25" y2="252.91" gradientTransform="matrix(1, 0, 0, 1, 0, 0)" xlink:href="#linear-gradient"/><linearGradient id="linear-gradient-32" x1="239.89" y1="289.22" x2="239.89" y2="252.91" gradientTransform="matrix(1, 0, 0, 1, 0, 0)" xlink:href="#linear-gradient"/><linearGradient id="linear-gradient-33" x1="271.87" y1="289.22" x2="271.87" y2="252.91" gradientTransform="matrix(1, 0, 0, 1, 0, 0)" xlink:href="#linear-gradient"/><linearGradient id="linear-gradient-34" x1="297.41" y1="289.22" x2="297.41" y2="252.91" gradientTransform="matrix(1, 0, 0, 1, 0, 0)" xlink:href="#linear-gradient"/><linearGradient id="linear-gradient-35" x1="321.77" y1="289.22" x2="321.77" y2="252.91" gradientTransform="matrix(1, 0, 0, 1, 0, 0)" xlink:href="#linear-gradient"/><linearGradient id="linear-gradient-36" x1="364.41" y1="289.22" x2="364.41" y2="252.91" gradientTransform="matrix(1, 0, 0, 1, 0, 0)" xlink:href="#linear-gradient"/></defs><g class="cls-2"><g id="Layer_2" data-name="Layer 2"><g id="Layer_1-2" data-name="Layer 1"><path class="cls-3" d="M356.63,365.18c-7.69,0-14.13-2-18.64-5.7a8.47,8.47,0,0,1-1.75-1.63,16.75,16.75,0,0,1-2.8-3.85l-.64-1.08-.77-1.25-1.92-3.06-.82-1.29-28-42.75-28,42.77-2.13,3.37-.79,1.27c-.23.36-.74,1.2-.74,1.2l-.5.86a17,17,0,0,1-2.78,3.81,8.68,8.68,0,0,1-1.74,1.63c-4.52,3.73-11,5.7-18.65,5.7-11.12,0-23.43-4.19-33.77-11.49-17.54-12.38-27.49-32.09-23.43-46.16a8.56,8.56,0,0,1,1.71-4.33l.39-.51a18.3,18.3,0,0,1,1.87-2.46l56.78-74.73L180.22,119.69a8.66,8.66,0,0,1,4.43-12.94,11.72,11.72,0,0,0,4.39-3.42,11.86,11.86,0,0,1-1.49-9.76c-5.57-9.39-17.75-28.49-42.1-61.41a16.75,16.75,0,0,1-6.64-5.55,17,17,0,0,1,1.23-21l0,0,.33-.35a17,17,0,0,1,2.46-2.13,16.87,16.87,0,0,1,26.53,12.17C191.17,47.6,204.9,65.53,212.93,75.2A11.92,11.92,0,0,1,222.31,80a10.86,10.86,0,0,0,4.25-2.81,8.44,8.44,0,0,1,1.85-1.73l.17-.12a8.63,8.63,0,0,1,4.92-1.53,8.74,8.74,0,0,1,6.91,3.42l60.89,80.14L362.19,77.2A8.68,8.68,0,0,1,374,75.31l.16.12A8.72,8.72,0,0,1,376,77.16,10.82,10.82,0,0,0,380.28,80a11.92,11.92,0,0,1,9.38-4.77c8-9.66,21.75-27.59,43.54-59.94a16.69,16.69,0,0,1,3-8.12,16.85,16.85,0,0,1,26-1.86c.08.07.19.2.31.33a17,17,0,0,1,1.22,21,16.68,16.68,0,0,1-6.64,5.55c-24.35,32.92-36.53,52-42.1,61.41a11.86,11.86,0,0,1-1.49,9.76,11.72,11.72,0,0,0,4.39,3.42,8.67,8.67,0,0,1,4.43,13L353.08,225.5l56.78,74.73a17.1,17.1,0,0,1,1.88,2.47l.38.5a8.63,8.63,0,0,1,1.72,4.33c4.05,14.07-5.9,33.78-23.44,46.16C380.06,361,367.75,365.18,356.63,365.18Z"/><path class="cls-3" d="M443.05,17.91a8.2,8.2,0,1,1,9.87,7c-43.75,59-50.28,75.64-50.28,75.64l-7-5-7-5S402.13,78.87,443.05,17.91Z"/><path class="cls-4" d="M443.05,17.91a8.19,8.19,0,0,1,12.86-7.74,8.78,8.78,0,0,1,1.29,1.13,8.2,8.2,0,0,0-11.38,8.57c-40.92,61-54.46,72.7-54.46,72.7l-2.77-2S402.13,78.87,443.05,17.91Z"/><path class="cls-5" d="M447.64,16.67c-.52,3.39,1.49,6.51,4.5,7s5.87-1.91,6.4-5.3-1.49-6.51-4.5-7S448.16,13.28,447.64,16.67Z"/><path class="cls-3" d="M200.36,306c6.88-7.39,170.08-223.47,170.08-223.47,5.58,7,18.15,8,18.15,8l7,5,7,5s5.19,11.5,13.66,14.41c0,0-149,226.1-153.66,235.06s-26,9.47-44.27-3.39S193.48,313.42,200.36,306Z"/><path class="cls-6" d="M231.25,266.15a371.5,371.5,0,0,0,48.16-25.43c29.35-19.19,57.35-37.66,84.55-60.86,9.25-7.77,17.58-16.18,25.8-24.6C346.7,220.69,266.05,343.45,262.64,350c-4.66,9-26,9.47-44.27-3.39s-24.89-33.19-18-40.58C202.13,304.13,214.24,288.43,231.25,266.15Z"/><polygon class="cls-7" points="402.64 100.53 354.38 153.97 388.59 90.61 402.64 100.53"/><path class="cls-8" d="M416.3,114.94S305.75,254.06,260.8,352.39Z"/><path class="cls-9" d="M370.27,82.45s-94.09,150.73-171.71,226Z"/><rect class="cls-10" x="385.92" y="88.65" width="23.32" height="7.47" rx="1.74" transform="translate(126.09 -212.4) rotate(35.22)"/><path class="cls-11" d="M320.88,218.3c.51.35-1.16,3.72-4.49,9.3l1.68-2.38c37.77-53.5,70.21-95.58,72.46-94S364,177.47,326.21,231,256,326.54,253.75,325c-1.05-.74,4.68-10.88,14.93-26.94-20.12,27.89-36,48-37.33,47.1-1.55-1.09,17.24-30.36,42-65.38S319.34,217.21,320.88,218.3Z"/><path class="cls-12" d="M333.66,177.33c1.13.79-17.17,28.65-40.87,62.22s-43.83,60.13-45,59.34,17.18-28.65,40.88-62.22S332.54,176.54,333.66,177.33Z"/><path class="cls-13" d="M362.82,110.62c1.76,1.27-20.38,34.92-49.45,75.16-6.2,8.58-12.21,16.76-17.85,24.32,1.36-1.38,2.22-2,2.48-1.84,1.46,1.06-16,27.69-38.93,59.47s-42.76,56.7-44.22,55.65,16-27.69,38.93-59.47q4.36-6.06,8.55-11.74c-2.69,3-4.37,4.47-4.78,4.17-1.76-1.27,20.38-34.92,49.45-75.16S361.06,109.35,362.82,110.62Z"/><path class="cls-3" d="M161.91,17.91a8.2,8.2,0,1,0-9.87,7c43.75,59,50.28,75.64,50.28,75.64l7-5,7-5S202.83,78.87,161.91,17.91Z"/><path class="cls-14" d="M161.91,17.91a8.19,8.19,0,0,0-12.86-7.74,8.78,8.78,0,0,0-1.29,1.13,8.2,8.2,0,0,1,11.38,8.57c40.92,61,54.46,72.7,54.46,72.7l2.77-2S202.83,78.87,161.91,17.91Z"/><path class="cls-15" d="M157.32,16.67c.52,3.39-1.49,6.51-4.5,7s-5.87-1.91-6.4-5.3,1.49-6.51,4.5-7S156.8,13.28,157.32,16.67Z"/><path class="cls-3" d="M404.6,306c-6.88-7.39-170.08-223.47-170.08-223.47-5.58,7-18.15,8-18.15,8l-7,5-7,5s-5.19,11.5-13.66,14.41c0,0,149,226.1,153.66,235.06s26.05,9.47,44.27-3.39S411.48,313.42,404.6,306Z"/><path class="cls-16" d="M373.71,266.15a371.5,371.5,0,0,1-48.16-25.43C296.2,221.53,268.2,203.06,241,179.86c-9.25-7.77-17.58-16.18-25.8-24.6C258.26,220.69,338.91,343.45,342.32,350c4.66,9,26.05,9.47,44.27-3.39s24.89-33.19,18-40.58C402.83,304.13,390.72,288.43,373.71,266.15Z"/><polygon class="cls-17" points="202.32 100.53 250.58 153.97 216.37 90.61 202.32 100.53"/><path class="cls-18" d="M188.66,114.94s110.55,139.12,155.5,237.45Z"/><path class="cls-19" d="M234.69,82.45s94.09,150.73,171.71,226Z"/><rect class="cls-10" x="195.72" y="88.65" width="23.32" height="7.47" rx="1.74" transform="translate(430.07 48.25) rotate(144.78)"/><path class="cls-20" d="M284.08,218.3c-.51.35,1.16,3.72,4.49,9.3l-1.68-2.38c-37.77-53.5-70.21-95.58-72.46-94S241,177.47,278.75,231s70.21,95.57,72.46,94c1.05-.74-4.68-10.88-14.93-26.94,20.12,27.89,36,48,37.33,47.1,1.55-1.09-17.24-30.36-42-65.38S285.62,217.21,284.08,218.3Z"/><path class="cls-21" d="M271.3,177.33c-1.13.79,17.17,28.65,40.87,62.22s43.83,60.13,44.95,59.34-17.18-28.65-40.88-62.22S272.42,176.54,271.3,177.33Z"/><path class="cls-22" d="M242.14,110.62c-1.75,1.27,20.38,34.92,49.45,75.16,6.2,8.58,12.21,16.76,17.85,24.32-1.36-1.38-2.22-2-2.48-1.84-1.46,1.06,16,27.69,38.93,59.47s42.76,56.7,44.22,55.65-16-27.69-38.92-59.47q-4.38-6.06-8.56-11.74c2.69,3,4.37,4.47,4.78,4.17,1.76-1.27-20.38-34.92-49.45-75.16S243.9,109.35,242.14,110.62Z"/><path d="M450,8.67a8.21,8.21,0,0,1,4.73,1.5A8.55,8.55,0,0,1,456,11.29h0a8.2,8.2,0,0,1-4.27,13.59c-29,39-41.6,59.52-46.85,68.92l.58.41a3.2,3.2,0,0,1,.77,4.45l-.63.88a3.14,3.14,0,0,1-2.59,1.34,3.3,3.3,0,0,1-1.55-.39v0s5.19,11.5,13.66,14.41L342.47,225.87l60.66,79.83.29.33a9.24,9.24,0,0,1,1.14,1.55l.65.86-.47-.46c4.44,8.54-2.52,26.75-19.34,38.63-9.7,6.85-20.29,9.9-28.77,9.9-5.95,0-10.86-1.5-13.71-4.24l.05.12-.11-.17a8.84,8.84,0,0,1-1.72-2.22c-.07-.12-.17-.31-.29-.51l-.12-.21-.35-.59-.16-.25c-.18-.31-.39-.65-.63-1l-.19-.32-.62-1c-.1-.17-.21-.34-.32-.51-.21-.34-.44-.71-.68-1.08l-.34-.54-.85-1.35L301.3,288.75,266,342.63l-.88,1.38-.28.44c-.25.41-.5.79-.72,1.15-.11.17-.22.34-.32.51l-.61,1-.2.32c-.24.38-.44.72-.63,1-.06.09-.1.17-.16.25l-.35.59-.12.21c-.12.2-.22.39-.29.51a8.84,8.84,0,0,1-1.72,2.22l-.11.17a.61.61,0,0,1,.05-.12c-2.85,2.74-7.76,4.24-13.71,4.24-8.48,0-19.07-3.05-28.77-9.9-16.82-11.88-23.78-30.09-19.33-38.63l-.48.46.66-.86a8.26,8.26,0,0,1,1.14-1.55l.28-.33,60.66-79.83L187.47,114.94c8.48-2.91,13.66-14.41,13.66-14.41v0a3.29,3.29,0,0,1-1.54.39,3.16,3.16,0,0,1-2.6-1.34l-.63-.88a3.21,3.21,0,0,1,.77-4.45l.58-.41c-5.24-9.4-17.89-29.9-46.85-68.92a8.2,8.2,0,0,1-4.27-13.59h0a8.55,8.55,0,0,1,1.27-1.12,8.2,8.2,0,0,1,12.87,7.74C187.81,58.26,202.89,77,210,85.13l.95-.68a3.2,3.2,0,0,1,4.45.77l.63.89a3.2,3.2,0,0,1-.77,4.45l-.07,0s12.56-1,18.15-8l1.41,1.87-1.25-2,67.8,89.22,67.79-89.22-1.25,2,1.41-1.87c5.59,7,18.15,8,18.15,8l-.07,0a3.2,3.2,0,0,1-.77-4.45l.63-.89a3.2,3.2,0,0,1,4.45-.77l.95.68c7.11-8.09,22.19-26.87,49.27-67.22A8.19,8.19,0,0,1,450,8.67M450,5a11.87,11.87,0,0,0-11.88,11.9c-24.59,36.59-39.1,55-46.37,63.58a7,7,0,0,0-1.95-.28,6.89,6.89,0,0,0-5.61,2.9l-.63.89a6.72,6.72,0,0,0-1,2c-3.69-1-8.09-2.75-10.47-5.74a3.74,3.74,0,0,0-.83-.76l-.11-.08a3.67,3.67,0,0,0-5,.8L301.3,165.61,236.42,80.23a3.66,3.66,0,0,0-5-.8l-.12.08a3.74,3.74,0,0,0-.83.76c-2.38,3-6.78,4.76-10.46,5.74a6.75,6.75,0,0,0-1-2l-.63-.89a6.89,6.89,0,0,0-5.61-2.9,7.07,7.07,0,0,0-1.95.28c-7.27-8.55-21.77-27-46.37-63.58A11.88,11.88,0,0,0,144,8.72c-.06,0-.1.11-.15.16l0,0a11.91,11.91,0,0,0-.9,14.82,11.77,11.77,0,0,0,5.74,4.34C175,63.69,187.55,83.55,193.13,93.2a6.9,6.9,0,0,0,.23,7.59l.62.88a6.89,6.89,0,0,0,1.45,1.5c-2.15,3.23-5.41,7-9.15,8.3a3.7,3.7,0,0,0-2.28,2.29,3.66,3.66,0,0,0,.4,3.2l71.23,108.75-59,77.68-.13.15a12,12,0,0,0-1.49,2l-.53.69a3.66,3.66,0,0,0-.75,2.21c-3.44,10.65,3.79,28.77,21.36,41.18,9.52,6.72,20.78,10.57,30.89,10.57,6.56,0,12.07-1.66,15.63-4.7a3.56,3.56,0,0,0,1-.92,11.85,11.85,0,0,0,2.14-2.86c0-.09.12-.22.21-.38l.08-.14.36-.59.14-.24.62-1,.09-.15.1-.16.61-1,.31-.49.72-1.15.29-.45.63-1,.24-.37,32.19-49.15,32.22,49.19.82,1.3.16.26.18.28.67,1.07.32.5.61,1,.1.16.09.15.62,1,.14.25.34.55.1.19c.09.14.16.27.21.36a11.93,11.93,0,0,0,2.14,2.88,3.53,3.53,0,0,0,1,.91c3.57,3,9.07,4.7,15.63,4.7,10.11,0,21.37-3.85,30.89-10.57,17.57-12.41,24.8-30.53,21.36-41.18a3.65,3.65,0,0,0-.74-2.21l-.53-.69a12.06,12.06,0,0,0-1.51-2l-.12-.14-59-77.68L418.19,117a3.66,3.66,0,0,0,.4-3.2,3.7,3.7,0,0,0-2.28-2.29c-3.74-1.29-7-5.07-9.15-8.3a6.89,6.89,0,0,0,1.45-1.5l.63-.88a6.9,6.9,0,0,0,.22-7.59C415,83.55,427.56,63.69,454,28.07A11.86,11.86,0,0,0,458.8,8.91l-.18-.19a11.17,11.17,0,0,0-1.77-1.54A11.79,11.79,0,0,0,450,5Z"/><polygon class="cls-3" points="602.59 288.48 575.45 293.67 575.45 216.25 602.59 215.27 602.59 288.48"/><path class="cls-3" d="M557.17,300.1l-540.43-.91H7.68A7.69,7.69,0,0,1,0,291.51V214.58a7.7,7.7,0,0,1,7.68-7.69h22.6l.58,0H31l28.23.05L40.72,153a14.46,14.46,0,0,1,9-18.39L92.31,120a14.42,14.42,0,0,1,10-6.43L160.4,105a165.59,165.59,0,0,1,283.12.22l56.77,9.22a14.41,14.41,0,0,1,9.41,5.81l42.83,13.18a14.47,14.47,0,0,1,9.57,18.09l-17.32,56.3,12.77,0h37.36a7.69,7.69,0,0,1,7.68,7.68L602,230.35a7.68,7.68,0,0,1-7.68,7.68h-12.2v1H592a7.68,7.68,0,0,1,7.68,7.68v14.23a7.69,7.69,0,0,1-7.68,7.68h-9.9v2h12.83a7.69,7.69,0,0,1,7.68,7.68v14.14a7.69,7.69,0,0,1-7.68,7.69Z"/><path class="cls-3" d="M519.06,255.32a5.49,5.49,0,0,1-1.55-.23L448.94,234a5.26,5.26,0,0,1-3.48-6.58l32.09-104.32a5.26,5.26,0,0,1,5-3.72,5.17,5.17,0,0,1,1.55.24L552.7,140.7a5.28,5.28,0,0,1,3.49,6.59L524.1,251.6A5.24,5.24,0,0,1,519.06,255.32Z"/><path d="M482.58,120.52a4.29,4.29,0,0,1,1.22.18l68.57,21.1a4.12,4.12,0,0,1,2.72,5.15L523,251.26a4.13,4.13,0,0,1-3.94,2.91,4.22,4.22,0,0,1-1.21-.18l-68.57-21.1a4.11,4.11,0,0,1-2.72-5.14l32.09-104.32a4.11,4.11,0,0,1,3.93-2.91m0-2.3h0a6.38,6.38,0,0,0-6.14,4.53L444.36,227.07a6.42,6.42,0,0,0,4.25,8l68.56,21.1a6.44,6.44,0,0,0,8-4.25l32.09-104.32a6.41,6.41,0,0,0-4.25-8l-68.57-21.09a6.36,6.36,0,0,0-1.88-.29Z"/><path class="cls-23" d="M487.88,188.67c5.82,7.29,8.76,8.56,9.17,13.12,2.59-3.77,5.78-3.45,14.42-7,8.35-3.39,9.51-11.87,5.79-16.59a8.69,8.69,0,0,0-14.05,0,8.69,8.69,0,0,0-12.27-6.84C485.39,173.67,482.25,181.63,487.88,188.67ZM534.05,153l0,.12,3.84,1,0-.12-.11,0a.56.56,0,0,1-.37-.31.54.54,0,0,1,.11-.57h0l1-1.33,2.84.74.23,1.66a.59.59,0,0,1-.07.41.53.53,0,0,1-.58.22l-.11,0,0,.12,2.58.68,0-.12-.1,0a1.12,1.12,0,0,1-.53-.33,1.25,1.25,0,0,1-.31-.63l-1.14-7a3,3,0,0,1-.06-.3c0-.15,0-.32-.08-.5s0-.37,0-.54a.94.94,0,0,1,0-.39l-.11,0-5.69,7a1.42,1.42,0,0,1-.57.39,1.16,1.16,0,0,1-.61,0Zm4.79-1.7,2-2.66.46,3.3Zm-5,5.61a8.31,8.31,0,0,0,7.86,2c1.11,1.41.76,3.94-1.73,5s-3.53.95-4.3,2.07c-.13-1.36-1-1.74-2.74-3.91S532.17,157.55,533.82,156.86Zm-75.54,62.33,0,.12.11,0a1.17,1.17,0,0,1,.53.33,1.29,1.29,0,0,1,.31.63l1.14,7,.06.3c0,.15.05.32.07.51s0,.37.06.54a1.19,1.19,0,0,1,0,.39l.11,0,5.69-7a1.33,1.33,0,0,1,.57-.38,1.07,1.07,0,0,1,.61,0l.1,0,0-.12-3.84-1,0,.12.11,0a.57.57,0,0,1,.37.31.51.51,0,0,1-.11.57h0l-1,1.34-2.83-.75-.24-1.66a.65.65,0,0,1,.07-.41.51.51,0,0,1,.28-.2.55.55,0,0,1,.31,0l.11,0,0-.12Zm2.11,3.62,2.42.63-2,2.66Zm7.44-5a2.6,2.6,0,0,1-3.67-2,2.59,2.59,0,0,1-4.19,0,3.24,3.24,0,0,1,1.73-4.95c2.58-1.05,3.53-1,4.3-2.08.13,1.36,1,1.74,2.74,3.92A3.24,3.24,0,0,1,467.83,217.83Z"/><path class="cls-3" d="M483.13,239.84a6.09,6.09,0,0,1-.85-.07l-70.81-11.5a5.29,5.29,0,0,1-4.36-6.05l17.5-107.73a5.25,5.25,0,0,1,5.2-4.42,4.88,4.88,0,0,1,.85.07l70.81,11.5a5.26,5.26,0,0,1,4.35,6L488.33,235.41A5.26,5.26,0,0,1,483.13,239.84Z"/><path d="M429.81,111.22a3.67,3.67,0,0,1,.66,0l70.81,11.5a4.13,4.13,0,0,1,3.41,4.73l-17.5,107.73a4.13,4.13,0,0,1-4.06,3.46,3.88,3.88,0,0,1-.67-.06l-70.81-11.5a4.11,4.11,0,0,1-3.4-4.72l17.5-107.73a4.1,4.1,0,0,1,4.06-3.46m0-2.3h0a6.38,6.38,0,0,0-6.33,5.39L406,222a6.42,6.42,0,0,0,5.3,7.36l70.82,11.5a6,6,0,0,0,1,.09,6.4,6.4,0,0,0,6.33-5.39L507,127.87a6.42,6.42,0,0,0-5.31-7.37L430.84,109a7.15,7.15,0,0,0-1-.08Z"/><path d="M443.35,182.82a8.09,8.09,0,0,0,10.76.36A44.37,44.37,0,0,1,449,191l5.18.72,5.19.71a44.49,44.49,0,0,1-2.83-9A8.12,8.12,0,0,0,467,186.09c4.16-2.17,6.5-8,1.43-14-9.89-11.81-9.6-13.9-9.6-13.9s-.29,2.09-13,10.78C439.26,173.38,439.93,179.61,443.35,182.82Zm42.52-45.88h-.1l0,.12,3.94.55,0-.13h-.11a.56.56,0,0,1-.41-.27.54.54,0,0,1,0-.58h0l.82-1.44,2.9.41.43,1.62a.61.61,0,0,1,0,.41.53.53,0,0,1-.25.24.5.5,0,0,1-.31.05h-.11l0,.12,2.65.37,0-.13h-.11a1.32,1.32,0,0,1-.57-.26,1.4,1.4,0,0,1-.38-.59l-2-6.86q0-.08-.09-.3c0-.14-.09-.3-.14-.49l-.12-.53a1.08,1.08,0,0,1,0-.38l-.11,0L487,136.39a1.34,1.34,0,0,1-.52.45A1.05,1.05,0,0,1,485.87,136.94Zm4.46-2.26,1.63-2.87.85,3.22Zm-4,8.75c3.8-2.59,3.88-3.21,3.88-3.21s-.08.62,2.87,4.15c1.51,1.81.81,3.54-.43,4.19a2.42,2.42,0,0,1-3.12-.77,13.18,13.18,0,0,0,.84,2.67l-1.55-.21-1.54-.22a13.36,13.36,0,0,0,1.54-2.34,2.43,2.43,0,0,1-3.22-.11C484.56,146.62,484.36,144.76,486.31,143.43Zm-68.7,68.1v.12l.11,0a1.06,1.06,0,0,1,.56.26,1.21,1.21,0,0,1,.38.59l2,6.85.09.3c0,.15.09.31.13.49s.09.36.12.53a1.21,1.21,0,0,1,0,.39l.11,0,4.83-7.59a1.35,1.35,0,0,1,.52-.45,1.24,1.24,0,0,1,.61-.1l.1,0v-.13l-3.93-.54,0,.12.11,0a.58.58,0,0,1,.41.26.52.52,0,0,1-.05.58h0l-.82,1.44-2.91-.4-.42-1.62a.59.59,0,0,1,0-.42.47.47,0,0,1,.25-.23.57.57,0,0,1,.31-.06l.11,0v-.12Zm5,3.69L421,218.09l-.84-3.21Zm4-8.75c-3.8,2.59-3.88,3.22-3.88,3.22s.08-.63-2.87-4.15c-1.51-1.81-.81-3.55.43-4.19a2.42,2.42,0,0,1,3.12.77,14.21,14.21,0,0,0-.84-2.68l1.54.22,1.55.21a13.69,13.69,0,0,0-1.54,2.35,2.4,2.4,0,0,1,3.21.1C428.37,203.28,428.57,205.14,426.63,206.47Z"/><path class="cls-3" d="M87.17,255.41a5.28,5.28,0,0,1-5-3.56L46.73,148.62A5.26,5.26,0,0,1,50,141.93l67.85-23.3a5.25,5.25,0,0,1,6.69,3.27L160,225.13a5.27,5.27,0,0,1-3.27,6.69l-67.85,23.3A5.29,5.29,0,0,1,87.17,255.41Z"/><path d="M119.57,119.49a4.11,4.11,0,0,1,3.89,2.79L158.91,225.5a4.11,4.11,0,0,1-2.56,5.23L88.5,254a3.88,3.88,0,0,1-1.33.23,4.13,4.13,0,0,1-3.9-2.78L47.82,148.25A4.12,4.12,0,0,1,50.38,143l67.85-23.3a4.19,4.19,0,0,1,1.34-.23m0-2.3h0a6.5,6.5,0,0,0-2.09.35l-67.85,23.3a6.41,6.41,0,0,0-4,8.16L81.09,252.22a6.41,6.41,0,0,0,8.16,4l67.85-23.3a6.43,6.43,0,0,0,4-8.16L125.64,121.53a6.43,6.43,0,0,0-6.07-4.34Z"/><path class="cls-23" d="M97.92,171l16.7,12-5.81,19.72-16.69-12Zm-30.71-15.8.1,0,0,.12-3.76,1.29,0-.12.1,0a.59.59,0,0,0,.35-.34.54.54,0,0,0-.15-.56h0l-1.08-1.26-2.77,1-.11,1.68a.55.55,0,0,0,.1.4.51.51,0,0,0,.29.19.64.64,0,0,0,.31,0l.11,0,0,.12-2.53.87,0-.12.11,0a1.18,1.18,0,0,0,.5-.36,1.28,1.28,0,0,0,.26-.65l.61-7.11c0-.06,0-.16,0-.31s0-.32,0-.51,0-.37,0-.54a1.33,1.33,0,0,0,0-.39l.1,0L66,154.9a1.32,1.32,0,0,0,.6.34A1,1,0,0,0,67.21,155.22Zm-4.81-1.36-2.15-2.5L60,154.68Zm-.52,11.35,5,3.58,1.73-5.89-5-3.57Zm86.64,50.09,0,.12-.11,0a1.12,1.12,0,0,0-.5.36,1.38,1.38,0,0,0-.27.65l-.6,7.11c0,.06,0,.16,0,.31s0,.32,0,.51,0,.37,0,.54a1.33,1.33,0,0,0,0,.39l-.11,0-6.19-6.51a1.32,1.32,0,0,0-.6-.34,1.07,1.07,0,0,0-.62,0l-.09,0,0-.12,3.76-1.29,0,.12-.11,0a.57.57,0,0,0-.35.33.52.52,0,0,0,.16.56h0l1.08,1.25,2.78-1,.11-1.68a.6.6,0,0,0-.11-.4.43.43,0,0,0-.28-.18.58.58,0,0,0-.32,0l-.1,0,0-.12Zm-4.19,4.59,2.16,2.5.21-3.32Zm.52-11.35-5-3.58-1.74,5.89,5,3.57Z"/><path class="cls-3" d="M118,239.22a5.3,5.3,0,0,1-5.21-4.49l-16-108a5.28,5.28,0,0,1,4.44-6l71-10.51a5.12,5.12,0,0,1,.78-.06,5.3,5.3,0,0,1,5.2,4.5l16,108a5.27,5.27,0,0,1-4.44,6l-71,10.51A5.27,5.27,0,0,1,118,239.22Z"/><path d="M173,111.36a4.13,4.13,0,0,1,4.07,3.52l16,108a4.13,4.13,0,0,1-3.48,4.68l-71,10.51a4.26,4.26,0,0,1-.61,0,4.12,4.12,0,0,1-4.07-3.51l-16-108a4.11,4.11,0,0,1,3.47-4.67l71-10.51a4.18,4.18,0,0,1,.61,0m0-2.3h0a7.45,7.45,0,0,0-1,.07l-71,10.51a6.42,6.42,0,0,0-5.41,7.29l16,108a6.46,6.46,0,0,0,6.35,5.48,6,6,0,0,0,.94-.07l71-10.51a6.4,6.4,0,0,0,5.41-7.29l-16-108a6.45,6.45,0,0,0-6.34-5.48Z"/><path d="M161.28,174.67a7.41,7.41,0,0,1-13.48,5.23,30.18,30.18,0,0,0,5.91,10.55l-5.73.85h0l-5.73.85a30.29,30.29,0,0,0,2.6-11.81,7.41,7.41,0,1,1-8.17-9.52c.2,0,.41,0,.61-.06a5.77,5.77,0,0,1,.72,0,7.18,7.18,0,0,1,1.05.11,7.34,7.34,0,0,1-2.24-4.3,7.42,7.42,0,0,1,6.25-8.42h0a7.41,7.41,0,0,1,7.52,11,8.29,8.29,0,0,1,1-.41,8,8,0,0,1,1.3-.32A7.42,7.42,0,0,1,161.28,174.67ZM115.76,137h.1l0,.12-3.93.58,0-.12.11,0a.55.55,0,0,0,.4-.27.52.52,0,0,0,0-.58h0l-.84-1.43-2.9.43-.41,1.63a.55.55,0,0,0,0,.41.49.49,0,0,0,.25.24.67.67,0,0,0,.31.05l.11,0,0,.12-2.65.4,0-.13h.11a1.16,1.16,0,0,0,.56-.27,1.26,1.26,0,0,0,.38-.59l1.9-6.88s0-.15.09-.3.08-.3.13-.49.08-.36.11-.53a.94.94,0,0,0,0-.39h.12l4.9,7.53a1.35,1.35,0,0,0,.52.45A1.13,1.13,0,0,0,115.76,137Zm-4.48-2.22-1.66-2.85-.82,3.22Zm3.12,8.67a2.46,2.46,0,0,0-.39.09l-.29.13a2.22,2.22,0,1,0-3.44.5l-.31,0h-.22l-.18,0A2.21,2.21,0,1,0,112,147a9.08,9.08,0,0,1-.78,3.53l1.71-.26,1.71-.25a9,9,0,0,1-1.76-3.15,2.21,2.21,0,1,0,1.51-3.42Zm70.32,67.48,0,.12-.11,0a1.21,1.21,0,0,0-.56.27,1.29,1.29,0,0,0-.38.59l-1.89,6.87-.09.3-.13.49c0,.19-.08.36-.12.53a1.48,1.48,0,0,0,0,.39l-.11,0-4.9-7.54a1.34,1.34,0,0,0-.53-.44,1.19,1.19,0,0,0-.6-.1l-.1,0,0-.13,3.93-.58,0,.13H179a.59.59,0,0,0-.4.27.52.52,0,0,0,0,.58h0l.83,1.43,2.9-.43.42-1.63a.62.62,0,0,0,0-.41.47.47,0,0,0-.25-.23.5.5,0,0,0-.31-.05h-.11l0-.12Zm-4.95,3.74,1.66,2.86.81-3.23ZM176.65,206a2.36,2.36,0,0,0,.38-.1,1.48,1.48,0,0,0,.29-.12,2.29,2.29,0,0,0-.27,1.42,2.21,2.21,0,1,0,4.38-.65,2.16,2.16,0,0,0-.67-1.28,1.73,1.73,0,0,0,.32,0h.21l.18,0a2.21,2.21,0,1,0-2.43-2.84,9,9,0,0,1,.77-3.52l-1.71.25-1.71.25a9.09,9.09,0,0,1,1.77,3.15,2.22,2.22,0,1,0-1.51,3.43Z"/><path d="M449.59,253.74V228.51H145.93a160.73,160.73,0,1,1,303.66,25.23Z"/><g class="cls-24"><circle class="cls-3" cx="302.01" cy="191.31" r="156.97" transform="translate(-46.82 269.59) rotate(-45)"/><circle class="cls-25" cx="302.01" cy="191.87" r="150.11" transform="translate(-47.22 269.75) rotate(-45)"/><path class="cls-26" d="M275.92,300.55,268.85,330a143,143,0,0,0,22,3.47l2.37-30.19A112.88,112.88,0,0,1,275.92,300.55Z"/><path class="cls-26" d="M328.1,83.19l7.07-29.45a143,143,0,0,0-22-3.48l-2.38,30.2A112.87,112.87,0,0,1,328.1,83.19Z"/><path class="cls-26" d="M243.61,287.18,227.78,313a140.4,140.4,0,0,0,19.86,10.12l11.59-28A110.77,110.77,0,0,1,243.61,287.18Z"/><path class="cls-26" d="M360.42,96.57l15.82-25.84a142.55,142.55,0,0,0-19.86-10.12l-11.59,28A111.48,111.48,0,0,1,360.42,96.57Z"/><path class="cls-26" d="M217,264.45l-23,19.68a143,143,0,0,0,15.76,15.76l19.67-23A112.55,112.55,0,0,1,217,264.45Z"/><path class="cls-26" d="M387,119.29l23-19.67a142.14,142.14,0,0,0-15.76-15.76l-19.67,23A113.42,113.42,0,0,1,387,119.29Z"/><path class="cls-26" d="M405.28,149.1l28-11.6a141.56,141.56,0,0,0-10.15-19.85L397.3,133.48A111.44,111.44,0,0,1,405.28,149.1Z"/><path class="cls-26" d="M198.74,234.65l-28,11.59a141.56,141.56,0,0,0,10.15,19.85l25.82-15.82A112,112,0,0,1,198.74,234.65Z"/><path class="cls-26" d="M190.59,200.64,160.39,203a140.71,140.71,0,0,0,3.47,22L193.32,218A110.36,110.36,0,0,1,190.59,200.64Z"/><path class="cls-26" d="M413.43,183.1l30.2-2.37a140.52,140.52,0,0,0-3.47-22l-29.46,7.07A110.24,110.24,0,0,1,413.43,183.1Z"/><path class="cls-26" d="M410.69,218,440.15,225a143,143,0,0,0,3.47-22l-30.2-2.38A111.79,111.79,0,0,1,410.69,218Z"/><path class="cls-26" d="M193.33,165.78l-29.46-7.07a143,143,0,0,0-3.47,22l30.2,2.37A111.67,111.67,0,0,1,193.33,165.78Z"/><path class="cls-26" d="M397.32,250.28l25.83,15.83a141,141,0,0,0,10.12-19.87l-28-11.59A110.88,110.88,0,0,1,397.32,250.28Z"/><path class="cls-26" d="M206.7,133.47l-25.83-15.83a141.47,141.47,0,0,0-10.12,19.86l28,11.6A112,112,0,0,1,206.7,133.47Z"/><path class="cls-26" d="M229.43,106.89l-19.67-23A143,143,0,0,0,194,99.62l23,19.67A112.55,112.55,0,0,1,229.43,106.89Z"/><path class="cls-26" d="M374.59,276.85l19.67,23A143,143,0,0,0,410,284.13l-23-19.68A110.83,110.83,0,0,1,374.59,276.85Z"/><path class="cls-26" d="M344.79,295.14l11.59,28A141.5,141.5,0,0,0,376.23,313L360.4,287.16A111.88,111.88,0,0,1,344.79,295.14Z"/><path class="cls-26" d="M259.23,88.6l-11.59-28a142.64,142.64,0,0,0-19.85,10.15l15.83,25.82A113,113,0,0,1,259.23,88.6Z"/><path class="cls-26" d="M310.78,303.3l2.38,30.2a140.72,140.72,0,0,0,22-3.48l-7.08-29.46A110.25,110.25,0,0,1,310.78,303.3Z"/><path class="cls-26" d="M293.24,80.45l-2.38-30.2a142.08,142.08,0,0,0-22,3.47l7.08,29.46A111.42,111.42,0,0,1,293.24,80.45Z"/><path class="cls-27" d="M310.78,80.46l2.38-30.2a143.12,143.12,0,0,0-22.3,0l2.38,30.2A111.65,111.65,0,0,1,310.78,80.46Z"/><path class="cls-26" d="M321.21,111.89l6.89-28.7a112.87,112.87,0,0,0-17.32-2.73l-2.32,29.41A82.87,82.87,0,0,1,321.21,111.89Z"/><path class="cls-26" d="M282.81,271.86l-6.89,28.69a112.88,112.88,0,0,0,17.32,2.74l2.32-29.42A81.86,81.86,0,0,1,282.81,271.86Z"/><path class="cls-26" d="M345,121.73l15.42-25.16a111.48,111.48,0,0,0-15.63-8l-11.3,27.27A81.88,81.88,0,0,1,345,121.73Z"/><path class="cls-26" d="M259,262l-15.42,25.16a110.77,110.77,0,0,0,15.62,8l11.3-27.26A81.22,81.22,0,0,1,259,262Z"/><path class="cls-26" d="M239.47,245.29,217,264.45a112.55,112.55,0,0,0,12.4,12.4l19.16-22.43A82.76,82.76,0,0,1,239.47,245.29Z"/><path class="cls-26" d="M364.56,138.45,387,119.29a113.42,113.42,0,0,0-12.4-12.4l-19.16,22.44A82.76,82.76,0,0,1,364.56,138.45Z"/><path class="cls-26" d="M378,160.39l27.26-11.29a111.44,111.44,0,0,0-8-15.62L372.14,148.9A82.33,82.33,0,0,1,378,160.39Z"/><path class="cls-26" d="M226,223.36l-27.26,11.29a112,112,0,0,0,8,15.62l25.16-15.42A82.33,82.33,0,0,1,226,223.36Z"/><path class="cls-26" d="M382,172.67a82.42,82.42,0,0,1,2,12.75l29.41-2.32a110.24,110.24,0,0,0-2.73-17.32Z"/><path class="cls-26" d="M220,198.33l-29.41,2.31A110.36,110.36,0,0,0,193.32,218l28.7-6.89A81.62,81.62,0,0,1,220,198.33Z"/><path class="cls-26" d="M222,172.67l-28.69-6.89a111.67,111.67,0,0,0-2.73,17.32L220,185.42A84.5,84.5,0,0,1,222,172.67Z"/><path class="cls-26" d="M382,211.08,410.69,218a111.79,111.79,0,0,0,2.73-17.33L384,198.33A83.25,83.25,0,0,1,382,211.08Z"/><path class="cls-26" d="M231.86,148.89,206.7,133.47a112,112,0,0,0-8,15.63L226,160.39A82.84,82.84,0,0,1,231.86,148.89Z"/><path class="cls-26" d="M372.16,234.86l25.16,15.42a110.88,110.88,0,0,0,8-15.63L378,223.36A81.76,81.76,0,0,1,372.16,234.86Z"/><path class="cls-26" d="M355.43,254.42l19.16,22.43a110.83,110.83,0,0,0,12.4-12.4l-22.43-19.16A83.73,83.73,0,0,1,355.43,254.42Z"/><path class="cls-26" d="M248.59,129.33l-19.16-22.44a112.55,112.55,0,0,0-12.4,12.4l22.44,19.16A82.67,82.67,0,0,1,248.59,129.33Z"/><path class="cls-26" d="M270.53,115.87,259.23,88.6a113,113,0,0,0-15.61,8L259,121.74A82.92,82.92,0,0,1,270.53,115.87Z"/><path class="cls-26" d="M333.49,267.88l11.3,27.26a111.88,111.88,0,0,0,15.61-8L345,262A81.89,81.89,0,0,1,333.49,267.88Z"/><path class="cls-26" d="M308.46,273.88l2.32,29.42a110.25,110.25,0,0,0,17.32-2.74l-6.88-28.69A82.74,82.74,0,0,1,308.46,273.88Z"/><path class="cls-26" d="M295.56,109.87l-2.32-29.42a111.42,111.42,0,0,0-17.32,2.73l6.89,28.7A80.09,80.09,0,0,1,295.56,109.87Z"/><path class="cls-23" d="M275.92,300.55,268.85,330a141.25,141.25,0,0,1-21.21-6.88l11.59-28A110.28,110.28,0,0,0,275.92,300.55ZM344.79,88.6l11.59-28a142,142,0,0,0-21.21-6.87L328.1,83.19A112.57,112.57,0,0,1,344.79,88.6Zm29.8,18.29,19.67-23a141.7,141.7,0,0,0-18-13.13L360.42,96.57A111.8,111.8,0,0,1,374.59,106.89Zm-145.16,170-19.67,23a141.62,141.62,0,0,0,18,13.12l15.83-25.83A110.31,110.31,0,0,1,229.43,276.85ZM397.3,133.48l25.82-15.83a142.21,142.21,0,0,0-13.1-18l-23,19.67A113.11,113.11,0,0,1,397.3,133.48ZM206.72,250.27,180.9,266.09a142.31,142.31,0,0,0,13.1,18l23-19.68A112.28,112.28,0,0,1,206.72,250.27Zm204-84.49,29.46-7.07a142,142,0,0,0-6.89-21.21l-28,11.6A110.16,110.16,0,0,1,410.7,165.78ZM193.32,218,163.86,225a141.5,141.5,0,0,0,6.89,21.2l28-11.59A110.52,110.52,0,0,1,193.32,218ZM190.6,183.1l-30.2-2.37a143,143,0,0,0,0,22.29l30.2-2.38A111.65,111.65,0,0,1,190.6,183.1Zm222.83,0a111.65,111.65,0,0,1,0,17.54l30.2,2.38a143,143,0,0,0,0-22.29Zm-8.15,51.55,28,11.59a140.76,140.76,0,0,0,6.88-21.2L410.69,218A110.15,110.15,0,0,1,405.28,234.65ZM198.74,149.1l-28-11.6a141.25,141.25,0,0,0-6.88,21.21l29.46,7.07A109.79,109.79,0,0,1,198.74,149.1ZM387,264.45l23,19.68a143.13,143.13,0,0,0,13.13-18l-25.83-15.83A112.14,112.14,0,0,1,387,264.45ZM217,119.29,194,99.62a142.41,142.41,0,0,0-13.13,18l25.83,15.83A113,113,0,0,1,217,119.29Zm26.59-22.71L227.79,70.76a142.48,142.48,0,0,0-18,13.1l19.67,23A112.39,112.39,0,0,1,243.62,96.58ZM360.4,287.16,376.23,313a143.47,143.47,0,0,0,18-13.1l-19.67-23A111.4,111.4,0,0,1,360.4,287.16Zm-84.48-204-7.08-29.46a142.25,142.25,0,0,0-21.2,6.89l11.59,28A111.79,111.79,0,0,1,275.92,83.18ZM328.1,300.56,335.18,330a141.1,141.1,0,0,0,21.2-6.89l-11.59-28A110.64,110.64,0,0,1,328.1,300.56Zm-34.86,2.73-2.37,30.19a143,143,0,0,0,22.29,0l-2.38-30.2A114.12,114.12,0,0,1,293.24,303.29Zm40.25-187.42,11.3-27.27a112.57,112.57,0,0,0-16.69-5.41l-6.89,28.7A81.54,81.54,0,0,1,333.49,115.87Zm-63,152-11.3,27.26a110.28,110.28,0,0,0,16.69,5.41l6.89-28.69A81.54,81.54,0,0,1,270.53,267.88Zm84.9-138.55,19.16-22.44a111.8,111.8,0,0,0-14.17-10.32L345,121.73A82.29,82.29,0,0,1,355.43,129.33ZM248.59,254.42l-19.16,22.43a110.31,110.31,0,0,0,14.18,10.33L259,262A81.68,81.68,0,0,1,248.59,254.42Zm-16.71-19.57-25.16,15.42A112.28,112.28,0,0,0,217,264.45l22.44-19.16A82.05,82.05,0,0,1,231.88,234.85ZM372.14,148.9l25.16-15.42A113.11,113.11,0,0,0,387,119.29l-22.43,19.16A82.8,82.8,0,0,1,372.14,148.9ZM382,172.67l28.69-6.89a110.16,110.16,0,0,0-5.42-16.68L378,160.39A82.69,82.69,0,0,1,382,172.67ZM222,211.08,193.32,218a110.52,110.52,0,0,0,5.42,16.68L226,223.36A81.88,81.88,0,0,1,222,211.08Zm-2-25.66L190.6,183.1a111.65,111.65,0,0,0,0,17.54L220,198.33A84.31,84.31,0,0,1,220,185.42Zm164,12.91,29.41,2.31a111.65,111.65,0,0,0,0-17.54L384,185.42A83.05,83.05,0,0,1,384,198.33ZM226,160.39,198.74,149.1a109.79,109.79,0,0,0-5.41,16.68L222,172.67A81.54,81.54,0,0,1,226,160.39Zm152,63,27.26,11.29A110.15,110.15,0,0,0,410.69,218L382,211.08A81.54,81.54,0,0,1,378,223.36Zm-13.46,21.93L387,264.45a112.14,112.14,0,0,0,10.33-14.17l-25.16-15.42A83.28,83.28,0,0,1,364.56,245.29ZM239.47,138.45,217,119.29a113,113,0,0,0-10.33,14.18l25.16,15.42A82.46,82.46,0,0,1,239.47,138.45ZM345,262l15.41,25.16a111.4,111.4,0,0,0,14.19-10.31l-19.16-22.43A82.69,82.69,0,0,1,345,262ZM259,121.74,243.62,96.58a112.39,112.39,0,0,0-14.19,10.31l19.16,22.44A82.77,82.77,0,0,1,259,121.74Zm23.78-9.86-6.89-28.7a111.79,111.79,0,0,0-16.69,5.42l11.3,27.27A81.54,81.54,0,0,1,282.81,111.88Zm38.41,160,6.88,28.69a110.64,110.64,0,0,0,16.69-5.42l-11.3-27.26A81.42,81.42,0,0,1,321.22,271.87Zm-25.66,2-2.32,29.42a114.12,114.12,0,0,0,17.54,0l-2.32-29.42A81.71,81.71,0,0,1,295.56,273.87Z"/><path class="cls-3" d="M308.46,109.87l2.32-29.41a111.65,111.65,0,0,0-17.54,0l2.32,29.42A82.91,82.91,0,0,1,308.46,109.87Z"/><path class="cls-3" d="M444.23,180.68h0a142.62,142.62,0,0,0-10.4-43.41h0a142.78,142.78,0,0,0-10.18-19.93,143.49,143.49,0,0,0-47.08-47.12,142.62,142.62,0,0,0-213.27,88.35,143.55,143.55,0,0,0-3.5,44.5,142.06,142.06,0,0,0,20.59,63.34,142.43,142.43,0,0,0,29,33.93,142.33,142.33,0,0,0,81.45,33.74c3.74.3,7.51.44,11.28.44s7.42-.14,11.1-.42A142.5,142.5,0,0,0,440.73,225.18a143.55,143.55,0,0,0,3.5-44.5Zm-4.53,43.63-15.5-3.72-12.79-3.07c.2-.84.37-1.7.55-2.55.09-.44.19-.87.28-1.31.26-1.33.5-2.67.71-4,0-.14.05-.29.07-.43.21-1.33.39-2.66.55-4,.06-.51.1-1,.16-1.55.08-.8.18-1.59.24-2.39l29,2.28A143.89,143.89,0,0,1,439.7,224.31ZM409,222.18c-.38,1.35-.79,2.7-1.22,4h0c-.44,1.34-.9,2.67-1.39,4-.15.43-.33.85-.49,1.28-.3.79-.61,1.58-.92,2.36l-8.1-3.35L378.8,223a82.61,82.61,0,0,0,3.64-11.23L410,218.41c-.2.81-.42,1.62-.64,2.43C409.2,221.28,409.1,221.73,409,222.18Zm14,43.1-15.8-9.68-9-5.52c.44-.72.86-1.46,1.28-2.2.23-.4.47-.8.7-1.21,1.39-2.48,2.69-5,3.88-7.61.2-.43.38-.87.58-1.3.34-.77.7-1.54,1-2.33l26.88,11.14A140.58,140.58,0,0,1,423,265.28Zm-28.58-11.54c-.73,1.09-1.48,2.17-2.25,3.23l-.26.36c-.8,1.09-1.62,2.17-2.45,3.23-.3.38-.61.74-.9,1.11l-1.59,1.93L365.4,245.22a81.51,81.51,0,0,0,7-9.54l20.31,12.45,3.82,2.34c-.43.69-.88,1.38-1.32,2.07C394.89,252.94,394.64,253.34,394.37,253.74Zm-10.85,13.7c-.94,1-1.9,2-2.87,3l-.17.16c-1,1-1.93,1.9-2.93,2.82-.35.33-.71.64-1.07,1-.61.55-1.21,1.1-1.83,1.63l-18.37-21.52a84.18,84.18,0,0,0,8.34-8.34l1.17,1,20.35,17.38c-.55.63-1.1,1.25-1.66,1.86C384.16,266.73,383.85,267.09,383.52,267.44Zm-12.79,11.8q-3.32,2.6-6.84,5l-1.16.75-2.13,1.37-2.26-3.69L345.81,262.2a83.14,83.14,0,0,0,9.55-6.94l.34.4,18,21.12-2,1.6C371.43,278.67,371.09,279,370.73,279.24Zm-47.18,21.7c-1.36.27-2.74.52-4.12.73l-.08,0q-2.07.31-4.14.57l-1.34.13c-.85.09-1.69.18-2.54.25l-2.22-28.21a82.22,82.22,0,0,0,11.66-1.84l3,12.4,3.63,15.12-2.4.52C324.5,300.73,324,300.85,323.55,300.94Zm-17.3,2c-2.82.11-5.65.1-8.48,0l-1.25-.07c-.88-.05-1.76-.09-2.63-.16l2.22-28.2a83,83,0,0,0,11.8,0l2.22,28.21c-.85.06-1.71.11-2.57.15C307.12,302.9,306.69,302.94,306.25,303Zm-17.44-.71c-2.8-.33-5.59-.77-8.35-1.32-.45-.08-.9-.19-1.35-.29-.83-.17-1.65-.34-2.46-.53l6.6-27.52a83.68,83.68,0,0,0,11.66,1.84l-2.22,28.21c-.85-.07-1.7-.16-2.55-.25Zm-17.11-3.41c-1.35-.38-2.69-.79-4-1.22h0q-2-.66-4-1.38l-1.27-.49c-.8-.31-1.59-.61-2.38-.93l3.36-8.1,7.47-18a82.61,82.61,0,0,0,11.23,3.64l-6.6,27.52c-.82-.2-1.63-.42-2.44-.64C272.59,299.07,272.15,299,271.7,298.83Zm-43.1,14,9.79-16L243.8,288c.72.43,1.44.84,2.17,1.25l1.24.73c1.2.66,2.4,1.31,3.62,1.93l.22.12c1.25.63,2.5,1.24,3.77,1.82.44.21.88.39,1.32.59.77.34,1.53.69,2.31,1l-11.13,26.88A141.34,141.34,0,0,1,228.6,312.81Zm11.55-28.57c-2.33-1.56-4.62-3.23-6.84-5l-1.05-.85-2-1.63,18.38-21.52a82,82,0,0,0,9.54,6.95L246,282.12l-2.59,4.22c-.71-.44-1.41-.9-2.12-1.36C240.91,284.73,240.53,284.5,240.15,284.24Zm-13.71-10.85c-2.06-1.92-4.06-3.92-6-6-.33-.36-.64-.73-1-1.09-.54-.6-1.09-1.2-1.62-1.82l21.52-18.37a83.22,83.22,0,0,0,8.35,8.34l-1,1.17L229.37,276c-.64-.55-1.26-1.12-1.88-1.68Zm-11.79-12.8q-2.61-3.31-5-6.84c-.26-.38-.5-.77-.75-1.16-.47-.7-.93-1.41-1.37-2.13l3.68-2.26,20.44-12.53a83.14,83.14,0,0,0,6.94,9.55l-.4.35-21.12,18c-.54-.64-1.07-1.3-1.6-2C215.22,261.29,214.93,261,214.65,260.59ZM205,246.05c-1.38-2.47-2.67-5-3.85-7.54-.18-.37-.34-.75-.5-1.13-.37-.8-.72-1.6-1.06-2.41l15.63-6.48,10.51-4.35a83.88,83.88,0,0,0,5.37,10.51l-9.69,5.94-14.43,8.84c-.44-.72-.86-1.45-1.28-2.18C205.42,246.85,205.17,246.45,205,246.05Zm-7.29-15.83c-.47-1.27-.92-2.56-1.34-3.85l-.06-.17c-.43-1.33-.83-2.66-1.21-4-.13-.45-.24-.9-.36-1.35-.22-.81-.44-1.63-.64-2.44l15.09-3.62,12.43-3A83.64,83.64,0,0,0,225.22,223l-26.15,10.83c-.3-.74-.58-1.48-.87-2.23C198,231.16,197.83,230.7,197.66,230.22ZM161,181.37l18,1.42,11,.87c-.06.8-.09,1.61-.13,2.41,0,.52-.07,1-.08,1.55-.06,1.36-.08,2.72-.09,4.08V192c0,1.37,0,2.74.08,4.1,0,.48.05.94.08,1.41,0,.85.07,1.7.13,2.54l-29,2.28A144.31,144.31,0,0,1,161,181.37Zm30.69-2.7c.17-1.4.36-2.79.58-4.17v-.07c.22-1.37.46-2.74.73-4.11.09-.46.2-.92.29-1.38.18-.81.35-1.62.54-2.43l27.51,6.6a85.19,85.19,0,0,0-1.84,11.66l-28.2-2.22c.07-.84.15-1.69.25-2.54C191.55,179.56,191.59,179.11,191.64,178.67Zm3.42-17.12c.35-1.24.72-2.48,1.12-3.71.06-.2.13-.4.19-.6.41-1.24.84-2.48,1.28-3.7.17-.45.35-.89.52-1.33.29-.78.59-1.55.91-2.32l26.14,10.83A81.72,81.72,0,0,0,221.58,172l-27.52-6.61q.28-1.14.6-2.28C194.79,162.56,194.91,162.05,195.06,161.55Zm6.05-16.36c1.18-2.56,2.47-5.08,3.84-7.53.21-.39.44-.76.66-1.14.43-.74.86-1.49,1.3-2.22L231,149.09a83.18,83.18,0,0,0-5.36,10.52l-26.14-10.83c.32-.78.66-1.54,1-2.31C200.73,146.05,200.91,145.61,201.11,145.19ZM209.64,130q2.36-3.51,5-6.84c.27-.35.55-.68.83-1q.81-1,1.65-2l21.52,18.37a84.44,84.44,0,0,0-7,9.54l-24.13-14.78c.45-.73.91-1.44,1.38-2.16C209.16,130.76,209.39,130.38,209.64,130Zm10.86-13.71c.94-1,1.9-2,2.87-3l.17-.17c1-1,1.94-1.89,2.93-2.81.34-.32.69-.62,1-.93.62-.56,1.24-1.12,1.87-1.66l18.38,21.51a84.38,84.38,0,0,0-8.35,8.35l-21.51-18.38q.83-.95,1.68-1.89C219.88,117,220.18,116.65,220.5,116.31Zm7.09-44.72L233,80.37l9.81,16c-.74.46-1.47,1-2.21,1.43-.37.24-.75.47-1.11.72q-3.57,2.38-6.93,5l-1,.81c-.68.55-1.37,1.1-2,1.67L210.61,83.93A142.37,142.37,0,0,1,227.59,71.59ZM247.32,61.4l.57,1.39,10.56,25.49c-.76.32-1.51.67-2.26,1-.45.2-.9.39-1.34.6-1.26.58-2.51,1.19-3.74,1.82l-.1,0c-1.27.64-2.52,1.32-3.76,2-.42.23-.82.48-1.24.72-.73.42-1.47.84-2.19,1.28l-5.49-9L228.62,71A140.18,140.18,0,0,1,247.32,61.4Zm33.14,21.41c2.77-.55,5.56-1,8.35-1.32l1.38-.14c.83-.09,1.67-.18,2.5-.24l2.22,28.21a82.22,82.22,0,0,0-11.66,1.84l-4.94-20.59-1.67-6.93c.8-.19,1.61-.36,2.42-.53C279.53,83,280,82.9,280.46,82.81Zm17.32-2c2.81-.1,5.64-.1,8.46,0l1.33.07c.86,0,1.71.09,2.56.15l-2.22,28.21q-3-.21-6-.21t-5.84.2L293.89,81c.84-.06,1.69-.1,2.53-.14Zm17.44.72c1.35.16,2.7.34,4,.55l.29,0c1.34.21,2.68.45,4,.71l1.36.29c.82.18,1.64.35,2.46.54l-.17.68-6.44,26.83a83.43,83.43,0,0,0-11.66-1.83l2.22-28.21c.82.07,1.63.15,2.45.24C314.26,81.41,314.74,81.45,315.22,81.51Zm20.4-27.05a140.55,140.55,0,0,1,20,6.48L344.46,87.82c-.78-.32-1.57-.61-2.35-.91l-1.34-.52c-2.67-1-5.39-1.86-8.13-2.63-.45-.13-.91-.24-1.36-.36-.82-.22-1.63-.45-2.45-.65l2-8.35Zm39.8,16.47-9.69,15.81-5.51,9c-.73-.44-1.48-.86-2.22-1.29-.4-.23-.79-.47-1.19-.69-1.21-.67-2.43-1.33-3.66-2l-.16-.08c-1.25-.63-2.51-1.25-3.79-1.84l-1.33-.58c-.76-.35-1.53-.7-2.3-1L356.7,61.4A141.29,141.29,0,0,1,375.42,70.93ZM363.87,99.51q3.51,2.34,6.84,5l1.08.88c.65.53,1.3,1.06,1.95,1.61l-.24.27-18.14,21.24a83.55,83.55,0,0,0-9.54-6.95l10.91-17.8,3.88-6.33c.7.44,1.39.89,2.08,1.34C363.08,99,363.48,99.24,363.87,99.51Zm13.7,10.85c2.07,1.92,4.07,3.91,6,6,.32.35.63.71.95,1.07l1.64,1.83-21.52,18.38a83.31,83.31,0,0,0-8.35-8.35l.69-.8,17.69-20.71c.64.55,1.27,1.12,1.9,1.69C376.89,109.75,377.24,110.05,377.57,110.36Zm11.81,12.8c.86,1.09,1.69,2.19,2.51,3.31l0,0q1.24,1.71,2.43,3.48l.72,1.11c.47.72.94,1.45,1.39,2.18l-10.16,6.23-14,8.55a83.14,83.14,0,0,0-6.94-9.55l21.52-18.37c.51.61,1,1.23,1.52,1.86C388.75,122.39,389.08,122.77,389.38,123.16Zm9.69,14.54c.66,1.17,1.29,2.35,1.9,3.53l.24.48c.59,1.16,1.16,2.32,1.7,3.5.21.44.4.89.6,1.34.33.74.66,1.48,1,2.23l-26.15,10.83A83.88,83.88,0,0,0,373,149.1l24.12-14.79q.66,1.09,1.29,2.19C398.61,136.9,398.85,137.3,399.07,137.7Zm7.29,15.82c.46,1.25.9,2.52,1.32,3.8l.11.32c.41,1.29.81,2.59,1.18,3.9.13.47.25.94.37,1.4q.33,1.2.63,2.4l-27.52,6.6a83.51,83.51,0,0,0-3.65-11.22L405,149.89c.31.76.61,1.54.91,2.32C406,152.65,406.2,153.08,406.36,153.52Zm4.72,16.81c.27,1.37.51,2.75.73,4.13v.06c.22,1.38.41,2.77.57,4.15.06.45.09.9.14,1.34.09.85.18,1.7.25,2.54l-28.21,2.22a82.45,82.45,0,0,0-1.84-11.66l27.52-6.6c.18.79.35,1.59.52,2.39C410.87,169.38,411,169.85,411.08,170.33Zm1.3,34.74c-.34,2.8-.78,5.59-1.32,8.35-.09.46-.19.91-.29,1.37-.17.82-.35,1.64-.53,2.45l-27.52-6.61A84.71,84.71,0,0,0,384.56,199l28.21,2.22c-.08.85-.16,1.7-.26,2.56C412.47,204.19,412.43,204.63,412.38,205.07ZM404.49,235c-.33.77-.67,1.54-1,2.31-.19.42-.37.85-.57,1.27q-1.77,3.85-3.83,7.54l-.7,1.19c-.42.73-.84,1.45-1.27,2.17l-14.47-8.87L373,234.66a83.18,83.18,0,0,0,5.36-10.52l10.51,4.35Zm-27-11.84a81.06,81.06,0,0,1-5.82,11.41h0a81.78,81.78,0,0,1-27,26.94,80.15,80.15,0,0,1-11.41,5.83h0a82.46,82.46,0,0,1-12.18,3.95,82.23,82.23,0,0,1-38.13,0,80.29,80.29,0,0,1-12.19-4,81.67,81.67,0,0,1-11.42-5.81h0a82,82,0,0,1-26.95-27,83.42,83.42,0,0,1-5.83-11.41h0a81.35,81.35,0,0,1-6-24.84,82.27,82.27,0,0,1,2-25.47,81.84,81.84,0,0,1,26.37-43h0a84.17,84.17,0,0,1,10.37-7.53,82.29,82.29,0,0,1,11.41-5.83,81.08,81.08,0,0,1,12.19-4,82.22,82.22,0,0,1,12.65-2,84.41,84.41,0,0,1,12.82,0,83.06,83.06,0,0,1,12.65,2,81.22,81.22,0,0,1,23.61,9.77h0A83.2,83.2,0,0,1,355,129.78a84.24,84.24,0,0,1,9.06,9.06,83.14,83.14,0,0,1,7.53,10.37,81.35,81.35,0,0,1,11.79,36.26h0a82,82,0,0,1-6,37.66ZM359.57,287c-.72.44-1.45.87-2.18,1.29l-1.2.7c-2.47,1.38-5,2.66-7.54,3.85l-1.13.5c-.8.36-1.61.72-2.41,1.06l-6.48-15.64-4.35-10.51a82.56,82.56,0,0,0,10.51-5.37l5.94,9.69Zm-19.19,9.27c-1.31.48-2.63.94-4,1.37l0,0c-1.34.43-2.68.84-4,1.22l-1.41.38-2.38.62-3.63-15.12-3-12.4a82.24,82.24,0,0,0,11.23-3.65L344,294.81c-.79.32-1.58.63-2.38.93Zm-81.47-1.87-2.26-1-1.33-.59c-1.25-.58-2.49-1.18-3.71-1.8l-.22-.11c-1.21-.62-2.41-1.26-3.59-1.92-.41-.23-.81-.47-1.21-.71-.72-.41-1.44-.83-2.15-1.26l8.94-14.6,5.84-9.53a81.25,81.25,0,0,0,10.52,5.36l-4.35,10.51Zm-65.14-77.11c-.18-.79-.35-1.59-.52-2.39-.1-.48-.21-1-.31-1.44-.54-2.76-1-5.55-1.31-8.35,0-.42-.09-.85-.13-1.28-.1-.86-.18-1.73-.26-2.59L219.45,199a82.22,82.22,0,0,0,1.84,11.66l-12.43,3ZM191.15,200c-.06-.83-.1-1.66-.14-2.49,0-.47-.06-.94-.08-1.41-.05-1.38-.08-2.75-.08-4.13v-.16c0-1.39,0-2.77.09-4.16,0-.46.05-.91.07-1.37,0-.84.09-1.69.15-2.53L219.37,186a84.49,84.49,0,0,0,0,11.8Zm42.14-95.49q3.32-2.6,6.83-5l1.23-.79c.69-.45,1.38-.9,2.07-1.33l4,6.49,10.81,17.64a84.27,84.27,0,0,0-9.55,6.93l-18.14-21.24-.24-.27c.67-.56,1.34-1.11,2-1.65Zm14.55-9.7c1.23-.69,2.47-1.36,3.72-2h0c1.25-.64,2.51-1.25,3.77-1.84l1.21-.53c.78-.35,1.56-.7,2.34-1l.89,2.14,9.94,24a84,84,0,0,0-10.51,5.38l-.1-.17-14.68-24,2.17-1.27Zm15.8-7.28c2.64-1,5.33-1.85,8-2.62l1.37-.36c.81-.22,1.61-.43,2.42-.63l4.31,17.94,2.3,9.58a82.2,82.2,0,0,0-11.23,3.64L260,88.94l2.39-.94Zm68.68-2.62q4.06,1.16,8,2.61l1.25.49c.8.3,1.6.61,2.39.93l-10.83,26.14a84,84,0,0,0-11.23-3.64l6.6-27.51c.83.2,1.65.42,2.47.64ZM348.69,91c1.28.59,2.55,1.21,3.81,1.85l0,0c1.24.63,2.46,1.29,3.68,2,.42.23.83.48,1.25.72.71.41,1.42.82,2.11,1.24l-8.89,14.51-5.89,9.62a84.55,84.55,0,0,0-10.52-5.36L345.11,89.4c.78.33,1.56.67,2.33,1Zm36,95,28.21-2.22c.06.83.1,1.66.14,2.49,0,.47.06.94.08,1.41.05,1.37.08,2.75.08,4.13v.16c0,1.39,0,2.77-.09,4.15,0,.46-.05.92-.07,1.37,0,.85-.09,1.69-.15,2.53l-28.21-2.22A83,83,0,0,0,384.66,186ZM268.4,54.45l6.79,28.29c-.82.2-1.64.43-2.46.65l-1.37.37q-4.12,1.17-8.13,2.64l-1.3.5c-.79.3-1.59.6-2.37.92L248.43,60.94A141.52,141.52,0,0,1,268.4,54.45ZM190,201.29c.06.82.16,1.64.25,2.46.05.49.09,1,.15,1.47.33,2.83.78,5.65,1.33,8.44.08.42.18.84.27,1.26.18.87.35,1.74.56,2.6l-28.29,6.79A140.08,140.08,0,0,1,161,203.57Zm145.58,128L328.83,301c.84-.21,1.68-.45,2.52-.67.44-.12.87-.22,1.3-.35,2.75-.78,5.47-1.66,8.14-2.64l1.32-.51c.79-.3,1.58-.6,2.35-.91l11.13,26.88A141.52,141.52,0,0,1,335.62,329.3Zm21.08-6.95-6.57-15.89-4.56-11,2.16-1,1.45-.64c1.21-.56,2.4-1.15,3.59-1.75l.37-.19c1.22-.62,2.43-1.27,3.63-1.94l1.24-.73c.73-.42,1.47-.83,2.19-1.27l5.59,9.1,9.61,15.7A142.59,142.59,0,0,1,356.7,322.35Zm57.37-122.26c.06-.8.09-1.61.13-2.41,0-.52.07-1,.09-1.55,0-1.36.07-2.72.08-4.09v-.34c0-1.36,0-2.73-.08-4.1,0-.47-.05-.94-.08-1.41,0-.85-.07-1.69-.13-2.53l29-2.29a142.91,142.91,0,0,1,0,21ZM414,182.46c-.07-.82-.17-1.63-.25-2.45-.06-.5-.1-1-.16-1.49-.16-1.35-.34-2.69-.55-4,0-.11,0-.22,0-.33-.22-1.36-.46-2.72-.73-4.07-.08-.44-.19-.89-.28-1.33-.18-.85-.35-1.7-.55-2.54l28.29-6.79A140.21,140.21,0,0,1,443,180.18Zm-2.85-17.4c-.2-.83-.43-1.64-.65-2.46-.12-.46-.23-.92-.36-1.38-.39-1.37-.8-2.74-1.24-4.09v0c-.44-1.35-.91-2.68-1.39-4-.17-.46-.35-.9-.52-1.35-.3-.78-.59-1.56-.9-2.33l26.87-11.13a139,139,0,0,1,6.49,20Zm-5.54-16.75c-.32-.77-.68-1.54-1-2.32-.2-.42-.37-.85-.57-1.27-.59-1.27-1.2-2.53-1.84-3.77l0-.07c-.65-1.27-1.32-2.52-2-3.77-.23-.42-.49-.84-.73-1.26-.42-.72-.83-1.45-1.27-2.17l23.38-14.32,1.43-.88a141.31,141.31,0,0,1,9.55,18.7Zm6.25-24.45-14.35,8.8c-.44-.7-.89-1.39-1.34-2.07-.28-.43-.54-.86-.82-1.27-.77-1.15-1.56-2.28-2.37-3.4l-.2-.27c-.8-1.1-1.61-2.17-2.45-3.24-.29-.37-.59-.72-.89-1.09-.53-.65-1.05-1.32-1.59-2L410,100.47a143.3,143.3,0,0,1,12.34,17Zm-2.67-24.3-22.12,18.89c-.55-.64-1.13-1.26-1.69-1.89-.32-.35-.62-.7-.94-1-.95-1-1.92-2-2.91-3l0-.06c-1-1-2-2-3.08-3l-1-.91c-.64-.58-1.28-1.17-1.93-1.73l18.73-21.94.16-.18A142.6,142.6,0,0,1,409.18,99.56Zm-30,1.08-4.62,5.41c-.66-.56-1.33-1.1-2-1.64-.36-.29-.71-.59-1.07-.87-2.24-1.77-4.55-3.45-6.91-5l-1.12-.72c-.73-.48-1.45-1-2.18-1.41l9.88-16.12,5.32-8.69a141.11,141.11,0,0,1,17,12.37ZM332.7,61.48l-5,21c-.82-.19-1.66-.36-2.48-.53-.47-.1-.92-.21-1.39-.3-2.79-.55-5.61-1-8.44-1.33L314,80.17c-.85-.09-1.71-.19-2.56-.26l2.28-29a143.67,143.67,0,0,1,20.74,3.27ZM312.51,50.82l-2.28,29c-.83-.06-1.66-.1-2.49-.14l-1.47-.08c-1.21,0-2.41-.07-3.62-.07l-.67,0h-.05c-1.4,0-2.81,0-4.21.08l-1.24.07c-.9,0-1.79.08-2.69.15l-2.28-29A142.91,142.91,0,0,1,312.51,50.82Zm-22.2.08,2.28,29c-.84.07-1.69.17-2.53.26-.47,0-.93.08-1.39.14-2.83.33-5.65.78-8.44,1.33l-1.35.29c-.84.17-1.68.34-2.52.54l-3.09-12.87-3.7-15.42A141.59,141.59,0,0,1,290.31,50.9ZM209.69,84.71l18.89,22.12c-.63.54-1.24,1.11-1.86,1.66-.35.33-.72.64-1.07,1-1,.94-2,1.89-3,2.87l-.13.12c-1,1-2,2-2.93,3-.33.35-.64.71-1,1.06-.57.63-1.14,1.26-1.7,1.9L194.85,99.56A143.48,143.48,0,0,1,209.69,84.71Zm-15.63,15.76L211,114.91l5.21,4.45c-.54.64-1.07,1.31-1.6,2-.3.38-.61.74-.91,1.12-.88,1.12-1.74,2.25-2.58,3.4l-.05.08c-.82,1.12-1.62,2.26-2.39,3.42-.28.41-.54.83-.81,1.24-.45.69-.9,1.37-1.33,2.06l-14.41-8.82-10.4-6.38A142.12,142.12,0,0,1,194.06,100.47Zm-13,18,1.17.72,23.64,14.48c-.43.7-.83,1.42-1.24,2.13-.25.43-.51.85-.75,1.28-.64,1.16-1.27,2.34-1.88,3.53l-.21.41c-.62,1.21-1.21,2.43-1.78,3.66-.2.44-.39.89-.59,1.34-.34.76-.69,1.52-1,2.29l-26.88-11.13A140.55,140.55,0,0,1,181.07,118.47Zm-10,19.82L198,149.42c-.32.79-.62,1.58-.92,2.37-.17.44-.35.88-.51,1.32-1,2.68-1.86,5.4-2.64,8.14-.12.42-.22.85-.33,1.27-.23.84-.47,1.69-.67,2.54l-28.29-6.79A140.68,140.68,0,0,1,171.08,138.29Zm-6.76,21.14,28.29,6.8c-.2.83-.36,1.67-.54,2.51-.09.45-.2.89-.29,1.35-.27,1.38-.52,2.77-.74,4.16v.08c-.22,1.39-.41,2.79-.58,4.19-.06.49-.1,1-.15,1.49-.09.82-.18,1.63-.25,2.45l-29-2.28A143.81,143.81,0,0,1,164.32,159.43Zm28.56,59.26c.2.84.44,1.67.66,2.51.12.44.23.88.35,1.32.78,2.75,1.66,5.47,2.65,8.14.15.42.32.82.48,1.24.31.81.61,1.62.94,2.42l-26.88,11.14a140.37,140.37,0,0,1-6.49-20ZM187.42,240l11-4.56c.3.73.63,1.44,1,2.16.21.49.42,1,.64,1.45.56,1.21,1.14,2.4,1.75,3.59l.18.37q.95,1.83,2,3.63c.23.42.48.83.72,1.24.42.74.84,1.47,1.28,2.2l-9.11,5.58-15.7,9.62a141.93,141.93,0,0,1-9.55-18.7Zm19.11,11.1c.45.73.93,1.45,1.4,2.17.25.38.49.78.75,1.16,1.59,2.37,3.27,4.68,5,6.92l.86,1.05c.54.67,1.07,1.34,1.62,2l-22.12,18.89a143.3,143.3,0,0,1-12.34-17Zm-11.69,33.1L212,269.56l5-4.26c.56.65,1.15,1.28,1.72,1.92.31.33.6.67.9,1q2.91,3.13,6.06,6.06c.31.29.64.57,1,.86.66.6,1.31,1.2,2,1.78L209.69,299A142.6,142.6,0,0,1,194.84,284.19Zm30.09-1.14,4.57-5.35c.64.55,1.3,1.07,2,1.6l1.12.91c1.1.87,2.21,1.72,3.34,2.54l.19.13c1.11.81,2.23,1.59,3.37,2.36l1.19.77c.7.46,1.4.93,2.11,1.37l-15.2,24.8a141,141,0,0,1-17-12.36Zm26.85,31.67,7.78-18.79c.78.31,1.56.6,2.35.9.45.18.89.36,1.35.52,1.31.49,2.63.95,4,1.38l.16,0c1.32.43,2.65.83,4,1.21l1.34.35,2.47.66-.61,2.56-6.18,25.72a140.51,140.51,0,0,1-20-6.47Zm21.51-.66,3.07-12.78c.84.19,1.68.36,2.52.53l1.34.29c1.38.27,2.75.52,4.14.74l.13,0c1.38.22,2.77.41,4.16.57l1.51.16c.81.08,1.62.18,2.44.25l-2.29,29a141.17,141.17,0,0,1-20.74-3.27Zm18.22,18.87,2.28-29c.85.06,1.71.1,2.56.14l1.42.08c1.42.05,2.84.08,4.27.08H303c1.11,0,2.22,0,3.33-.07l1.49-.08c.82,0,1.63-.07,2.44-.13l2.28,29A142.91,142.91,0,0,1,291.51,332.93Zm22.2-.08-2.28-29c.81-.07,1.62-.16,2.44-.25l1.49-.15c1.34-.16,2.68-.35,4-.56l.36-.05q2-.33,4.05-.72l1.33-.29c.85-.18,1.7-.35,2.54-.54l6.79,28.29A141.38,141.38,0,0,1,313.71,332.85Zm62.72-20.69-15.2-24.8c.73-.46,1.45-.93,2.17-1.4.38-.26.77-.5,1.16-.75,2.37-1.6,4.68-3.27,6.92-5l1-.86c.67-.53,1.34-1.07,2-1.62l18.89,22.12A142.37,142.37,0,0,1,376.43,312.16ZM394.33,299l-14.27-16.71-4.62-5.41c.65-.57,1.29-1.15,1.93-1.74.33-.29.67-.58,1-.88q3.13-2.91,6.05-6.05c.3-.32.58-.65.87-1,.59-.65,1.2-1.31,1.78-2l22.11,18.89A141.54,141.54,0,0,1,394.33,299ZM410,283.28l-17.13-14.63-5-4.26c.54-.64,1.06-1.3,1.59-1.95.3-.38.62-.75.92-1.14.86-1.08,1.69-2.18,2.51-3.3l.19-.27c.8-1.1,1.57-2.2,2.33-3.32.26-.4.51-.8.77-1.19.46-.71.92-1.41,1.36-2.12l24.81,15.2A142.23,142.23,0,0,1,410,283.28Zm23-37.82-8.08-3.35-18.8-7.79c.32-.77.61-1.56.91-2.34.17-.45.36-.9.52-1.35.48-1.32.94-2.64,1.38-4a1.09,1.09,0,0,1,.05-.17c.43-1.32.83-2.65,1.21-4,.12-.45.23-.9.35-1.34.22-.83.45-1.65.65-2.48l2.56.61,25.73,6.18A141.09,141.09,0,0,1,432.94,245.46Z"/><text class="cls-28" transform="translate(298.72 69.48)">0</text><text class="cls-29" transform="translate(276.38 72.09) rotate(-9)">23</text><text class="cls-30" transform="translate(258.14 77.7) rotate(-18)">13</text><text class="cls-31" transform="translate(243.64 84.46) rotate(-27)">2</text><text class="cls-32" transform="translate(225.01 96.97) rotate(-36)">14</text><text class="cls-33" transform="translate(211.03 110.21) rotate(-45)">35</text><text class="cls-32" transform="translate(199.37 125.53) rotate(-54)">23</text><text class="cls-31" transform="translate(191.6 139.36) rotate(-63)">4</text><text class="cls-30" transform="translate(183.77 160.54) rotate(-72)">16</text><text class="cls-29" transform="translate(180.15 179.25) rotate(-81)">33</text><text class="cls-28" transform="translate(179.61 198.46) rotate(-90)">21</text><text class="cls-29" transform="translate(181.66 214.35) rotate(-99)">6</text><text class="cls-30" transform="translate(187.86 236.17) rotate(-108)">18</text><text class="cls-31" transform="translate(196.07 253.46) rotate(-117)">31</text><text class="cls-32" transform="translate(207.13 269.41) rotate(-126)">12</text><text class="cls-33" transform="translate(218.02 280.99) rotate(-135)">8</text><text class="cls-32" transform="translate(235.65 295.05) rotate(-144)">12</text><text class="cls-31" transform="translate(252.46 304.05) rotate(-153)">29</text><text class="cls-30" transform="translate(270.65 310.54) rotate(-162)">25</text><text class="cls-29" transform="translate(289.44 313.82) rotate(-171)">10</text><text class="cls-28" transform="translate(308.6 314.27) rotate(180)">00</text><text class="cls-29" transform="translate(327.69 311.81) rotate(171)">27</text><text class="cls-30" transform="translate(343.19 307.47) rotate(162)">1</text><text class="cls-31" transform="translate(363.58 298.09) rotate(153)">13</text><text class="cls-32" transform="translate(379.56 287.28) rotate(144)">36</text><text class="cls-33" transform="translate(393.45 274) rotate(135)">24</text><text class="cls-32" transform="translate(403.23 261.43) rotate(126)">3</text><text class="cls-31" transform="translate(414.21 241.7) rotate(117)">15</text><text class="cls-30" transform="translate(420.66 223.66) rotate(108)">34</text><text class="cls-29" transform="translate(424 204.54) rotate(99)">22</text><text class="cls-28" transform="translate(424.41 188.58) rotate(90)">5</text><text class="cls-29" transform="translate(421.9 166.29) rotate(81)">17</text><text class="cls-30" transform="translate(416.61 147.99) rotate(72)">32</text><text class="cls-31" transform="translate(408.21 130.58) rotate(63)">20</text><text class="cls-32" transform="translate(399.38 117.52) rotate(54)">7</text><text class="cls-33" transform="translate(384.14 100.89) rotate(45)">11</text><text class="cls-32" transform="translate(368.88 89.25) rotate(36)">30</text><text class="cls-31" transform="translate(351.86 79.95) rotate(27)">26</text><text class="cls-30" transform="translate(336.91 74.67) rotate(18)">9</text><text class="cls-29" transform="translate(314.72 69.97) rotate(9)">28</text><text class="cls-34" transform="translate(298.72 69.48)">0</text><text class="cls-34" transform="translate(298.72 69.48)">0</text><text class="cls-34" transform="translate(298.72 69.48)">0</text><text class="cls-35" transform="translate(276.38 72.09) rotate(-9)">23</text><text class="cls-35" transform="translate(276.38 72.09) rotate(-9)">23</text><text class="cls-35" transform="translate(276.38 72.09) rotate(-9)">23</text><text class="cls-36" transform="translate(258.14 77.7) rotate(-18)">13</text><text class="cls-36" transform="translate(258.14 77.7) rotate(-18)">13</text><text class="cls-36" transform="translate(258.14 77.7) rotate(-18)">13</text><text class="cls-37" transform="translate(243.64 84.46) rotate(-27)">2</text><text class="cls-37" transform="translate(243.64 84.46) rotate(-27)">2</text><text class="cls-37" transform="translate(243.64 84.46) rotate(-27)">2</text><text class="cls-38" transform="translate(225.01 96.97) rotate(-36)">14</text><text class="cls-38" transform="translate(225.01 96.97) rotate(-36)">14</text><text class="cls-38" transform="translate(225.01 96.97) rotate(-36)">14</text><text class="cls-39" transform="translate(211.03 110.21) rotate(-45)">35</text><text class="cls-39" transform="translate(211.03 110.21) rotate(-45)">35</text><text class="cls-39" transform="translate(211.03 110.21) rotate(-45)">35</text><text class="cls-38" transform="translate(199.37 125.53) rotate(-54)">23</text><text class="cls-38" transform="translate(199.37 125.53) rotate(-54)">23</text><text class="cls-38" transform="translate(199.37 125.53) rotate(-54)">23</text><text class="cls-37" transform="translate(191.6 139.36) rotate(-63)">4</text><text class="cls-37" transform="translate(191.6 139.36) rotate(-63)">4</text><text class="cls-37" transform="translate(191.6 139.36) rotate(-63)">4</text><text class="cls-36" transform="translate(183.77 160.54) rotate(-72)">16</text><text class="cls-36" transform="translate(183.77 160.54) rotate(-72)">16</text><text class="cls-36" transform="translate(183.77 160.54) rotate(-72)">16</text><text class="cls-35" transform="translate(180.15 179.25) rotate(-81)">33</text><text class="cls-35" transform="translate(180.15 179.25) rotate(-81)">33</text><text class="cls-35" transform="translate(180.15 179.25) rotate(-81)">33</text><text class="cls-34" transform="translate(179.61 198.46) rotate(-90)">21</text><text class="cls-34" transform="translate(179.61 198.46) rotate(-90)">21</text><text class="cls-34" transform="translate(179.61 198.46) rotate(-90)">21</text><text class="cls-35" transform="translate(181.66 214.35) rotate(-99)">6</text><text class="cls-35" transform="translate(181.66 214.35) rotate(-99)">6</text><text class="cls-35" transform="translate(181.66 214.35) rotate(-99)">6</text><text class="cls-36" transform="translate(187.86 236.17) rotate(-108)">18</text><text class="cls-36" transform="translate(187.86 236.17) rotate(-108)">18</text><text class="cls-36" transform="translate(187.86 236.17) rotate(-108)">18</text><text class="cls-37" transform="translate(196.07 253.46) rotate(-117)">31</text><text class="cls-37" transform="translate(196.07 253.46) rotate(-117)">31</text><text class="cls-37" transform="translate(196.07 253.46) rotate(-117)">31</text><text class="cls-38" transform="translate(207.13 269.41) rotate(-126)">12</text><text class="cls-38" transform="translate(207.13 269.41) rotate(-126)">12</text><text class="cls-38" transform="translate(207.13 269.41) rotate(-126)">12</text><text class="cls-39" transform="translate(218.02 280.99) rotate(-135)">8</text><text class="cls-39" transform="translate(218.02 280.99) rotate(-135)">8</text><text class="cls-39" transform="translate(218.02 280.99) rotate(-135)">8</text><text class="cls-38" transform="translate(235.65 295.05) rotate(-144)">12</text><text class="cls-38" transform="translate(235.65 295.05) rotate(-144)">12</text><text class="cls-38" transform="translate(235.65 295.05) rotate(-144)">12</text><text class="cls-37" transform="translate(252.46 304.05) rotate(-153)">29</text><text class="cls-37" transform="translate(252.46 304.05) rotate(-153)">29</text><text class="cls-37" transform="translate(252.46 304.05) rotate(-153)">29</text><text class="cls-36" transform="translate(270.65 310.54) rotate(-162)">25</text><text class="cls-36" transform="translate(270.65 310.54) rotate(-162)">25</text><text class="cls-36" transform="translate(270.65 310.54) rotate(-162)">25</text><text class="cls-35" transform="translate(289.44 313.82) rotate(-171)">10</text><text class="cls-35" transform="translate(289.44 313.82) rotate(-171)">10</text><text class="cls-35" transform="translate(289.44 313.82) rotate(-171)">10</text><text class="cls-34" transform="translate(308.6 314.27) rotate(180)">00</text><text class="cls-34" transform="translate(308.6 314.27) rotate(180)">00</text><text class="cls-34" transform="translate(308.6 314.27) rotate(180)">00</text><text class="cls-35" transform="translate(327.69 311.81) rotate(171)">27</text><text class="cls-35" transform="translate(327.69 311.81) rotate(171)">27</text><text class="cls-35" transform="translate(327.69 311.81) rotate(171)">27</text><text class="cls-36" transform="translate(343.19 307.47) rotate(162)">1</text><text class="cls-36" transform="translate(343.19 307.47) rotate(162)">1</text><text class="cls-36" transform="translate(343.19 307.47) rotate(162)">1</text><text class="cls-37" transform="translate(363.58 298.09) rotate(153)">13</text><text class="cls-37" transform="translate(363.58 298.09) rotate(153)">13</text><text class="cls-37" transform="translate(363.58 298.09) rotate(153)">13</text><text class="cls-38" transform="translate(379.56 287.28) rotate(144)">36</text><text class="cls-38" transform="translate(379.56 287.28) rotate(144)">36</text><text class="cls-38" transform="translate(379.56 287.28) rotate(144)">36</text><text class="cls-39" transform="translate(393.45 274) rotate(135)">24</text><text class="cls-39" transform="translate(393.45 274) rotate(135)">24</text><text class="cls-39" transform="translate(393.45 274) rotate(135)">24</text><text class="cls-38" transform="translate(403.23 261.43) rotate(126)">3</text><text class="cls-38" transform="translate(403.23 261.43) rotate(126)">3</text><text class="cls-38" transform="translate(403.23 261.43) rotate(126)">3</text><text class="cls-37" transform="translate(414.21 241.7) rotate(117)">15</text><text class="cls-37" transform="translate(414.21 241.7) rotate(117)">15</text><text class="cls-37" transform="translate(414.21 241.7) rotate(117)">15</text><text class="cls-36" transform="translate(420.66 223.66) rotate(108)">34</text><text class="cls-36" transform="translate(420.66 223.66) rotate(108)">34</text><text class="cls-36" transform="translate(420.66 223.66) rotate(108)">34</text><text class="cls-35" transform="translate(424 204.54) rotate(99)">22</text><text class="cls-35" transform="translate(424 204.54) rotate(99)">22</text><text class="cls-35" transform="translate(424 204.54) rotate(99)">22</text><text class="cls-34" transform="translate(424.41 188.58) rotate(90)">5</text><text class="cls-34" transform="translate(424.41 188.58) rotate(90)">5</text><text class="cls-34" transform="translate(424.41 188.58) rotate(90)">5</text><text class="cls-35" transform="translate(421.9 166.29) rotate(81)">17</text><text class="cls-35" transform="translate(421.9 166.29) rotate(81)">17</text><text class="cls-35" transform="translate(421.9 166.29) rotate(81)">17</text><text class="cls-36" transform="translate(416.61 147.99) rotate(72)">32</text><text class="cls-36" transform="translate(416.61 147.99) rotate(72)">32</text><text class="cls-36" transform="translate(416.61 147.99) rotate(72)">32</text><text class="cls-37" transform="translate(408.21 130.58) rotate(63)">20</text><text class="cls-37" transform="translate(408.21 130.58) rotate(63)">20</text><text class="cls-37" transform="translate(408.21 130.58) rotate(63)">20</text><text class="cls-38" transform="translate(399.38 117.52) rotate(54)">7</text><text class="cls-38" transform="translate(399.38 117.52) rotate(54)">7</text><text class="cls-38" transform="translate(399.38 117.52) rotate(54)">7</text><text class="cls-39" transform="translate(384.14 100.89) rotate(45)">11</text><text class="cls-39" transform="translate(384.14 100.89) rotate(45)">11</text><text class="cls-39" transform="translate(384.14 100.89) rotate(45)">11</text><text class="cls-38" transform="translate(368.88 89.25) rotate(36)">30</text><text class="cls-38" transform="translate(368.88 89.25) rotate(36)">30</text><text class="cls-38" transform="translate(368.88 89.25) rotate(36)">30</text><text class="cls-37" transform="translate(351.86 79.95) rotate(27)">26</text><text class="cls-37" transform="translate(351.86 79.95) rotate(27)">26</text><text class="cls-37" transform="translate(351.86 79.95) rotate(27)">26</text><text class="cls-36" transform="translate(336.91 74.67) rotate(18)">9</text><text class="cls-36" transform="translate(336.91 74.67) rotate(18)">9</text><text class="cls-36" transform="translate(336.91 74.67) rotate(18)">9</text><text class="cls-35" transform="translate(314.72 69.97) rotate(9)">28</text><text class="cls-35" transform="translate(314.72 69.97) rotate(9)">28</text><text class="cls-35" transform="translate(314.72 69.97) rotate(9)">28</text><circle class="cls-26" cx="302.01" cy="191.87" r="86.71"/><circle class="cls-40" cx="302.01" cy="191.87" r="76.67"/><rect class="cls-3" x="249.47" y="114.61" width="1.84" height="111.76" transform="matrix(0.38, -0.92, 0.92, 0.38, -2.94, 336.57)"/><rect class="cls-3" x="279.71" y="84.37" width="1.84" height="111.76" transform="translate(-32.31 118.07) rotate(-22.5)"/><rect class="cls-3" x="267.51" y="139.33" width="111.76" height="1.84" transform="translate(70.03 385.32) rotate(-67.49)"/><rect class="cls-3" x="297.76" y="169.57" width="111.76" height="1.84" transform="translate(-38.33 148.36) rotate(-22.51)"/><rect class="cls-3" x="352.72" y="157.38" width="1.84" height="111.76" transform="translate(21.29 458.37) rotate(-67.5)"/><rect class="cls-3" x="194.51" y="212.34" width="111.76" height="1.84" transform="translate(-62.56 112.1) rotate(-22.51)"/><path class="cls-3" d="M353.41,184.77a7.09,7.09,0,0,0-6.3,3.88c-2.18.35-4.37.59-6.55.78a112.52,112.52,0,0,1-12.85.31,126.34,126.34,0,0,1-12.85-1c-.76-.1-1.51-.22-2.27-.34a11.16,11.16,0,0,0-7.1-7.1c-.12-.76-.24-1.51-.34-2.27a126.11,126.11,0,0,1-1-12.85,112.57,112.57,0,0,1,.31-12.85c.19-2.18.43-4.36.78-6.55a7.1,7.1,0,1,0-6.44,0c.35,2.19.59,4.37.78,6.55a112.57,112.57,0,0,1,.31,12.85,126.11,126.11,0,0,1-1,12.85c-.1.76-.22,1.51-.34,2.27a11.16,11.16,0,0,0-7.1,7.1c-.76.12-1.51.24-2.27.34a126.34,126.34,0,0,1-12.85,1,112.52,112.52,0,0,1-12.85-.31c-2.18-.19-4.37-.43-6.55-.78a7.11,7.11,0,1,0,0,6.44c2.18-.35,4.37-.59,6.55-.78a114.86,114.86,0,0,1,12.85-.31c4.28.13,8.57.45,12.85,1l2.27.34a11.17,11.17,0,0,0,7.1,7.11c.12.75.24,1.51.34,2.26a126.56,126.56,0,0,1,1,12.85,112.46,112.46,0,0,1-.31,12.85c-.19,2.19-.43,4.37-.78,6.55a7.1,7.1,0,1,0,6.44,0c-.35-2.18-.59-4.36-.78-6.55a112.46,112.46,0,0,1-.31-12.85,126.56,126.56,0,0,1,1-12.85c.1-.75.22-1.51.34-2.26a11.17,11.17,0,0,0,7.1-7.11l2.27-.34c4.28-.56,8.57-.88,12.85-1a114.86,114.86,0,0,1,12.85.31c2.18.19,4.36.43,6.55.78a7.09,7.09,0,1,0,6.3-10.32Z"/><path class="cls-23" d="M301.77,255.66a63.68,63.68,0,1,1,5-.2c-1.65.13-3.35.2-5,.2Z"/><path d="M302,130a62.27,62.27,0,0,1,62.27,62.27c0,31.5-24,59.6-57.57,62.08-1.65.14-3.3.2-4.94.2-32.35,0-62-26.33-62-62.28A62.22,62.22,0,0,1,302,130m0-2.3a64.63,64.63,0,0,0-64.56,64.57A63.81,63.81,0,0,0,257,238.51a65.06,65.06,0,0,0,44.74,18.3c1.71,0,3.43-.07,5.13-.21a64,64,0,0,0,42.87-20.9,64.58,64.58,0,0,0-47.76-108Z"/><path class="cls-3" d="M333.43,246a44,44,0,0,0,3.84-2.41,1.33,1.33,0,0,0-.83-1.4,1.3,1.3,0,0,0-1.66.75C334.36,244,333.92,245,333.43,246Zm3.27-10.24a1.33,1.33,0,0,0,1.06,1.5H338a1.29,1.29,0,0,0,1.27-1.06,58.55,58.55,0,0,0,.75-7.86,1.43,1.43,0,0,0-.09-.5,1.3,1.3,0,0,0-.27-.43,1.37,1.37,0,0,0-.42-.29,1.35,1.35,0,0,0-.49-.11,1.43,1.43,0,0,0-.5.09,1.52,1.52,0,0,0-.43.28,1.22,1.22,0,0,0-.29.41,1.39,1.39,0,0,0-.1.5A50.7,50.7,0,0,1,336.7,235.71Zm-.52-22.55c.47,2.54.8,5.06,1,7.5a1.34,1.34,0,0,0,1.3,1.19h.13a1.3,1.3,0,0,0,1.17-1.4,72.8,72.8,0,0,0-1.07-7.75,1,1,0,0,0-.18-.48,1.24,1.24,0,0,0-.35-.37,1.57,1.57,0,0,0-.46-.2,1.25,1.25,0,0,0-.51,0A1.29,1.29,0,0,0,336.18,213.16Zm-4-14.66c.88,2.42,1.63,4.86,2.31,7.24a1.15,1.15,0,0,0,.22.46,1.21,1.21,0,0,0,.38.33,1.14,1.14,0,0,0,.48.16,1.2,1.2,0,0,0,.5,0,1.27,1.27,0,0,0,.91-1.58c-.68-2.47-1.45-5-2.36-7.45a1.35,1.35,0,0,0-.68-.67,1.25,1.25,0,0,0-.95,0,1.29,1.29,0,0,0-.81,1.57ZM326,184.57c1.19,2.26,2.31,4.57,3.32,6.85a1.28,1.28,0,0,0,1.19.78,1.22,1.22,0,0,0,.62-.16,1.29,1.29,0,0,0,.47-.43,1.42,1.42,0,0,0,.2-.6,1.36,1.36,0,0,0-.12-.63c-1-2.36-2.18-4.72-3.37-7a1.31,1.31,0,0,0-2.31,1.22Zm-8-13c1.45,2.07,2.88,4.2,4.2,6.38a1.3,1.3,0,0,0,1.11.62,1.28,1.28,0,0,0,.68-.2,1.5,1.5,0,0,0,.37-.34,1.37,1.37,0,0,0,.21-.46,1.4,1.4,0,0,0,0-.5,1.28,1.28,0,0,0-.18-.47c-1.35-2.23-2.8-4.41-4.28-6.54a1.31,1.31,0,0,0-1.81-.28A1.29,1.29,0,0,0,318.05,171.55Zm-9.66-11.78c1.72,1.82,3.43,3.74,5,5.73a1.26,1.26,0,0,0,1,.47,1.48,1.48,0,0,0,.83-.28,1.35,1.35,0,0,0,.18-1.85c-1.69-2-3.42-4-5.16-5.83a1.31,1.31,0,0,0-1.84-.06A1.28,1.28,0,0,0,308.39,159.77ZM297.06,149.7c2,1.46,4,3.07,5.89,4.78a1.19,1.19,0,0,0,.85.34,1.27,1.27,0,0,0,1-.45,1.25,1.25,0,0,0-.1-1.81c-2-1.77-4-3.43-6.07-5a1.3,1.3,0,1,0-1.53,2.1Zm-13.21-7.57a57.9,57.9,0,0,1,6.75,3.35l.78-1.07.64-1.11-.13-.08a61.28,61.28,0,0,0-7.05-3.48,1.24,1.24,0,0,0-.5-.1,1.33,1.33,0,0,0-.49.09,1.37,1.37,0,0,0-.42.29,1.19,1.19,0,0,0-.28.42A1.27,1.27,0,0,0,283.85,142.13Zm-14.34-3h.33a34,34,0,0,1,6.88.75.92.92,0,0,0,.28,0,1.29,1.29,0,0,0,1.27-1,1.21,1.21,0,0,0-.17-1,1.23,1.23,0,0,0-.81-.55,34.81,34.81,0,0,0-3.56-.6C272.28,137.48,270.88,138.26,269.51,139.12Z"/><path class="cls-41" d="M279,134.4c6.1.18,12.81,2.31,19.82,6.35,25.94,15,47,51.4,46.85,81.18a43.92,43.92,0,0,1-3.27,17.69,41.61,41.61,0,0,0,4.08-3.78,50.58,50.58,0,0,0,1.79-13.91c.1-30.61-21.51-68.05-48.15-83.43a50.77,50.77,0,0,0-15.44-6.05h0A55.39,55.39,0,0,0,279,134.4Z"/><path class="cls-3" d="M353.07,226.26a1.24,1.24,0,0,0,.34,1.12c1-1.4,1.86-2.85,2.69-4.33v0c.16-1.35.24-2.75.29-4.15a1.3,1.3,0,0,0-.08-.51,1.33,1.33,0,0,0-.28-.43,1.24,1.24,0,0,0-.41-.3,1.45,1.45,0,0,0-.5-.11,1.34,1.34,0,0,0-1.32,1.27A53.42,53.42,0,0,1,353.07,226.26Zm-.55-22.54c.47,2.54.83,5.06,1,7.52a1.27,1.27,0,0,0,1.3,1.17h.1a1.26,1.26,0,0,0,1.17-1.4c-.21-2.54-.57-5.14-1-7.76a1.4,1.4,0,0,0-.18-.48,1.54,1.54,0,0,0-.36-.36,1.26,1.26,0,0,0-.48-.2,1.46,1.46,0,0,0-.51,0A1.3,1.3,0,0,0,352.52,203.72Zm-4-14.66c.89,2.41,1.66,4.85,2.31,7.24a1.29,1.29,0,0,0,1.25,1,.9.9,0,0,0,.36,0,1.31,1.31,0,0,0,.91-1.59c-.68-2.46-1.48-5-2.36-7.44a1.29,1.29,0,0,0-1.66-.78A1.31,1.31,0,0,0,348.5,189.06Zm-6.12-13.93c1.17,2.26,2.28,4.57,3.3,6.85a1.3,1.3,0,0,0,2.38-1c-1-2.36-2.18-4.72-3.4-7a1.34,1.34,0,0,0-.32-.39,1.26,1.26,0,0,0-.44-.24,1.22,1.22,0,0,0-.5-.05,1.4,1.4,0,0,0-.49.15,1.34,1.34,0,0,0-.39.32,1.26,1.26,0,0,0-.24.44,1.48,1.48,0,0,0,0,.51A1.41,1.41,0,0,0,342.38,175.13Zm-8-13c1.45,2.07,2.85,4.22,4.17,6.38a1.36,1.36,0,0,0,1.12.62,1.23,1.23,0,0,0,.67-.18,1.3,1.3,0,0,0,.44-1.79c-1.37-2.23-2.8-4.41-4.3-6.51a1.24,1.24,0,0,0-.37-.35,1.3,1.3,0,0,0-.46-.18,1.4,1.4,0,0,0-.5,0,1.28,1.28,0,0,0-.46.21,1.2,1.2,0,0,0-.35.36,1.28,1.28,0,0,0-.18.47,1.41,1.41,0,0,0,0,.5A1.37,1.37,0,0,0,334.42,162.11Zm-9.68-11.76c1.74,1.79,3.42,3.71,5.06,5.71a1.24,1.24,0,0,0,1,.47,1.39,1.39,0,0,0,.83-.29,1.33,1.33,0,0,0,.19-1.84c-1.66-2-3.4-4-5.17-5.84a1.3,1.3,0,1,0-1.89,1.79ZM313.4,140.26a69.93,69.93,0,0,1,5.89,4.8,1.34,1.34,0,0,0,.86.31,1.29,1.29,0,0,0,.73-.23,1.28,1.28,0,0,0,.53-1.36,1.33,1.33,0,0,0-.38-.67c-2-1.76-4-3.42-6.1-4.92a1.28,1.28,0,0,0-.45-.23,1.25,1.25,0,0,0-.51,0,1.2,1.2,0,0,0-.48.17,1.29,1.29,0,0,0-.37.33A1.31,1.31,0,0,0,313.4,140.26Zm-13.2-7.57A57.22,57.22,0,0,1,307,136l.75-1,.54-1.19a58,58,0,0,0-7.08-3.5,1.16,1.16,0,0,0-.49-.1,1.43,1.43,0,0,0-.5.09,1.37,1.37,0,0,0-.42.29,1.17,1.17,0,0,0-.27.42A1.3,1.3,0,0,0,300.2,132.69Z"/><path class="cls-3" d="M283.8,178.05h0a10.53,10.53,0,0,0-10.54-10.55h0a10.56,10.56,0,0,0,4-.81,10.36,10.36,0,0,0,3.42-2.28A10.62,10.62,0,0,0,283.8,157h0a10.55,10.55,0,0,0,10.55,10.54h0a10.55,10.55,0,0,0-10.55,10.55Z"/></g><path d="M598.93,215.5v75.95a4,4,0,0,1-4,4L8.59,294.39a3.8,3.8,0,0,1-3.79-3.8V216.36a3.8,3.8,0,0,1,3.79-3.8l586.32-1.08A4,4,0,0,1,598.93,215.5Z"/><path class="cls-3" d="M36.22,293.35a1,1,0,0,1-1-.76,81.09,81.09,0,0,1-1.41-12.32l-.42-9c-.29-4.15-2-5.85-6-5.85h-2.6v26.94a1,1,0,0,1-1,1h-17a1,1,0,0,1-1-1V214.49a1,1,0,0,1,1-1H29.66c15.25,0,23.31,7.23,23.31,20.89v6.38c0,7.75-3,13.51-8.41,16.21,4.77,2.27,7.34,7.7,7.67,16.19l.43,9.73c.24,4.42.73,7.38,1.49,9.05a1,1,0,0,1-.91,1.41Zm-8-42.81c2.85,0,5.77-.89,5.77-7.48v-6.69c0-6-2.65-6.75-5.24-6.75H24.84v20.92Z"/><path d="M29.66,214.49c14.81,0,22.31,7,22.31,19.89v6.38C52,249,48.49,255,41.82,257v.11c6.56,1.46,9.1,8,9.41,16.11l.43,9.74c.21,3.76.63,7.32,1.58,9.41h-17a79.31,79.31,0,0,1-1.38-12.13l-.42-9c-.32-4.6-2.43-6.8-7-6.8h-3.6v27.94h-17V214.49H29.66m-5.82,37h4.34c3.91,0,6.77-1.88,6.77-8.47v-6.7c0-5.45-2.12-7.75-6.24-7.75H23.84v22.92m5.82-39H6.82a2,2,0,0,0-2,2v77.86a2,2,0,0,0,2,2h17a2,2,0,0,0,2-2V266.41h1.6c3.43,0,4.73,1.3,5,4.94l.42,9a82.24,82.24,0,0,0,1.43,12.51,2,2,0,0,0,1.95,1.53h17a2,2,0,0,0,1.82-2.82c-.69-1.54-1.17-4.46-1.41-8.71l-.42-9.7c-.35-9.13-3.31-13.8-6.68-16.13,4.77-3.14,7.42-8.83,7.42-16.23v-6.38c0-14.11-8.63-21.89-24.31-21.89Zm-3.82,18.13h2.87c2.14,0,4.24.45,4.24,5.75v6.7c0,6-2.46,6.47-4.77,6.47H25.84V230.62Z"/><path class="cls-3" d="M88.56,293.35a1,1,0,0,1-1-.72L78.29,260.7H76.45v31.65a1,1,0,0,1-1,1h-17a1,1,0,0,1-1-1V214.49a1,1,0,0,1,1-1h17a1,1,0,0,1,1,1V244h1.83l7.94-29.71a1,1,0,0,1,1-.75h18.08a1,1,0,0,1,.82.42,1,1,0,0,1,.13.91L93.47,252.13v.08L107.69,292a1,1,0,0,1-.94,1.33Z"/><path d="M105.27,214.49h0m0,0L92.47,252v.42l14.28,40H88.56L79,259.7H75.45v32.65h-17V214.49h17V245H79l8.15-30.46h18.08m0-2H87.19A2,2,0,0,0,85.25,214l-7.74,29h-.06V214.49a2,2,0,0,0-2-2h-17a2,2,0,0,0-2,2v77.86a2,2,0,0,0,2,2h17a2,2,0,0,0,2-2V261.7h.09l9.1,31.21a2,2,0,0,0,1.92,1.44h18.19a2,2,0,0,0,1.88-2.67L94.52,252.16l12.61-36.92a2,2,0,0,0,.14-.75,2,2,0,0,0-2-2Zm0,4h0Z"/><path class="cls-42" d="M48.5,283.07l-.43-9.75c-.31-7.77-2.64-12.2-7-13.17l-2.48-.67v-4.83L40.9,254a10.39,10.39,0,0,0,2.46-1.07H34.2a10.17,10.17,0,0,1-6,1.76H20.66v-1.76H10v36.31H20.66v-28h6.77c4.34,0,9.6,1.7,10.15,9.82l.43,9c.21,3.6.5,6.82.84,9.18H49.11A56.35,56.35,0,0,1,48.5,283.07Z"/><polygon class="cls-43" points="102.26 289.22 90.94 289.22 81.43 256.56 72.27 256.56 72.27 289.22 61.59 289.22 61.59 252.91 89.3 252.91 102.26 289.22"/><path class="cls-3" d="M392.07,293.35a1,1,0,0,1-1-1V214.49a1,1,0,0,1,1-1h21.05C427,213.49,435,220,435,231.34v4.92c0,6.54-2.49,11.48-7.24,14.44,6.33,2.26,9.78,7.68,9.78,15.49v6.49c0,13.33-8,20.67-22.58,20.67Zm20.62-15.6c4.31,0,6-1.72,6-6.12v-5.75c0-4.31-1.67-5.91-6.19-5.91h-2.91v17.78Zm-.42-33c4,0,5.45-1.55,5.45-5.7v-4.71c0-3.77-1.45-5.18-5.34-5.18h-2.81v15.59Z"/><path d="M413.12,214.49c12.9,0,20.83,5.87,20.83,16.85v4.92c0,6.39-2.43,11.83-8.78,14.65V251c7.72,1.67,11.32,7.32,11.32,15.17v6.49c0,12-6.77,19.67-21.58,19.67H392.07V214.49h21.05m-4.55,31.3h3.7c4.76,0,6.45-2.2,6.45-6.7v-4.71c0-4.19-1.8-6.18-6.34-6.18h-3.81v17.59m0,33h4.12c5,0,7-2.3,7-7.12v-5.75c0-4.92-2.22-6.91-7.19-6.91h-3.91v19.78m4.55-66.26H392.07a2,2,0,0,0-2,2v77.86a2,2,0,0,0,2,2h22.84c15.21,0,23.58-7.69,23.58-21.67v-6.49c0-7.55-3.06-13-8.71-15.72,4.05-3.2,6.17-8,6.17-14.21v-4.92c0-11.8-8.54-18.85-22.83-18.85Zm-2.55,17.71h1.81c3.33,0,4.34,1,4.34,4.18v4.71c0,3.64-1,4.7-4.45,4.7h-1.7V230.2Zm0,30.77h1.91c3.93,0,5.19,1.19,5.19,4.91v5.75c0,3.83-1.25,5.12-5,5.12h-2.12V261Z"/><path class="cls-3" d="M465.25,293.52c-16,0-24.16-9-24.16-26.72V240.16c0-17.74,8.13-26.73,24.16-26.73s24.16,9,24.16,26.73V266.8C489.41,284.53,481.28,293.52,465.25,293.52Zm0-63.71c-2.2,0-5.13.83-5.13,8v31.3c0,7.18,2.93,8,5.13,8,2.39,0,5.13-.91,5.13-8v-31.3C470.38,230.72,467.64,229.81,465.25,229.81Z"/><path d="M465.25,214.43c15.44,0,23.16,8.71,23.16,25.73V266.8c0,17-7.72,25.72-23.16,25.72s-23.16-8.71-23.16-25.72V240.16c0-17,7.72-25.73,23.16-25.73m0,63.71c4,0,6.13-2.63,6.13-9v-31.3c0-6.38-2.11-9-6.13-9s-6.13,2.64-6.13,9v31.3c0,6.38,2.22,9,6.13,9m0-65.71c-16.46,0-25.16,9.59-25.16,27.73V266.8c0,18.14,8.7,27.72,25.16,27.72s25.16-9.58,25.16-27.72V240.16c0-18.14-8.7-27.73-25.16-27.73Zm0,63.71c-1.34,0-4.13,0-4.13-7v-31.3c0-7,2.79-7,4.13-7s4.13,0,4.13,7v31.3c0,7-2.69,7-4.13,7Z"/><path class="cls-3" d="M517.91,293.52c-16,0-24.16-9-24.16-26.72V240.16c0-17.74,8.13-26.73,24.16-26.73s24.16,9,24.16,26.73V266.8C542.07,284.53,533.94,293.52,517.91,293.52Zm0-63.71c-2.2,0-5.13.83-5.13,8v31.3c0,7.18,2.93,8,5.13,8,2.39,0,5.13-.91,5.13-8v-31.3C523,230.72,520.3,229.81,517.91,229.81Z"/><path d="M517.91,214.43c15.44,0,23.16,8.71,23.16,25.73V266.8c0,17-7.72,25.72-23.16,25.72s-23.16-8.71-23.16-25.72V240.16c0-17,7.72-25.73,23.16-25.73m0,63.71c4,0,6.13-2.63,6.13-9v-31.3c0-6.38-2.11-9-6.13-9s-6.13,2.64-6.13,9v31.3c0,6.38,2.22,9,6.13,9m0-65.71c-16.46,0-25.16,9.59-25.16,27.73V266.8c0,18.14,8.7,27.72,25.16,27.72s25.16-9.58,25.16-27.72V240.16c0-18.14-8.7-27.73-25.16-27.73Zm0,63.71c-1.34,0-4.13,0-4.13-7v-31.3c0-7,2.79-7,4.13-7s4.13,0,4.13,7v31.3c0,7-2.69,7-4.13,7Z"/><path class="cls-3" d="M578.71,293.35a1,1,0,0,1-1-.72l-9.3-31.93H566.6v31.65a1,1,0,0,1-1,1h-17a1,1,0,0,1-1-1V214.49a1,1,0,0,1,1-1h17a1,1,0,0,1,1,1V244h1.83l7.94-29.71a1,1,0,0,1,1-.75h18.08a1,1,0,0,1,.82.42,1,1,0,0,1,.13.91l-12.74,37.31v.08L597.85,292a1,1,0,0,1-1,1.33Z"/><path d="M595.42,214.49h0m0,0L582.63,252v.42l14.27,40H578.71L569.2,259.7h-3.6v32.65h-17V214.49h17V245h3.6l8.14-30.46h18.08m0-2H577.34a2,2,0,0,0-1.93,1.49l-7.75,29h-.06V214.49a2,2,0,0,0-2-2h-17a2,2,0,0,0-2,2v77.86a2,2,0,0,0,2,2h17a2,2,0,0,0,2-2V261.7h.1l9.09,31.21a2,2,0,0,0,1.92,1.44H596.9a2,2,0,0,0,1.64-.84,2,2,0,0,0,.25-1.83l-14.12-39.52,12.61-36.92a1.86,1.86,0,0,0,.15-.75,2,2,0,0,0-2-2Zm0,4h0Z"/><path class="cls-44" d="M424.49,254.09l-2.5-.65v-.53H395.24v36.31h19.67c12.22,0,18.4-5.56,18.4-16.55v-6.49C433.31,259.42,430.35,255.36,424.49,254.09Zm-1.65,17.53c0,8.48-5.52,10.28-10.15,10.28h-7.3V255.82h7.08c8.57,0,10.37,5.46,10.37,10.05Z"/><path class="cls-45" d="M474.55,252.91v16.73c0,10.29-5.06,12.45-9.31,12.45-3.47,0-9.3-1.61-9.3-12.45V252.91H445.26v14.34c0,16,6.36,23.44,20,23.44s20-7.45,20-23.44V252.91Z"/><path class="cls-46" d="M527.21,252.91v16.73c0,10.29-5.05,12.45-9.3,12.45-3.47,0-9.31-1.61-9.31-12.45V252.91H497.92v14.34c0,16,6.34,23.44,20,23.44s20-7.45,20-23.44V252.91Z"/><polygon class="cls-47" points="592.42 289.22 581.1 289.22 571.58 256.56 562.43 256.56 562.43 289.22 551.75 289.22 551.75 252.91 579.45 252.91 592.42 289.22"/><path class="cls-3" d="M134.88,293.52c-16,0-24.16-9-24.16-26.72V240.16c0-17.74,8.13-26.73,24.16-26.73s24.16,9,24.16,26.73V266.8C159,284.53,150.91,293.52,134.88,293.52Zm0-63.71c-2.2,0-5.13.83-5.13,8v31.3c0,7.18,2.93,8,5.13,8,2.39,0,5.13-.91,5.13-8v-31.3C140,230.72,137.27,229.81,134.88,229.81Z"/><path d="M134.88,214.43c15.44,0,23.16,8.71,23.16,25.73V266.8c0,17-7.72,25.72-23.16,25.72s-23.16-8.71-23.16-25.72V240.16c0-17,7.72-25.73,23.16-25.73m0,63.71c4,0,6.13-2.63,6.13-9v-31.3c0-6.38-2.11-9-6.13-9s-6.13,2.64-6.13,9v31.3c0,6.38,2.22,9,6.13,9m0-65.71c-16.46,0-25.16,9.59-25.16,27.73V266.8c0,18.14,8.7,27.72,25.16,27.72S160,284.94,160,266.8V240.16c0-18.14-8.7-27.73-25.16-27.73Zm0,63.71c-1.34,0-4.13,0-4.13-7v-31.3c0-7,2.79-7,4.13-7s4.13,0,4.13,7v31.3c0,7-2.68,7-4.13,7Z"/><path class="cls-3" d="M196.53,293.35a1,1,0,0,1-.94-.67l-12.34-35.29v35a1,1,0,0,1-1,1H165.54a1,1,0,0,1-1-1V214.49a1,1,0,0,1,1-1h16.93a1,1,0,0,1,.94.68l12.23,35.69V214.49a1,1,0,0,1,1-1h16.71a1,1,0,0,1,1,1v77.86a1,1,0,0,1-1,1Z"/><path d="M213.35,214.49v77.86H196.53l-12.48-35.68-1.8-6.8h-.31l.31,7.74v34.74H165.54V214.49h16.93l12.37,36.11,1.9,6.91H197l-.31-7.85V214.49h16.71m0-2H196.64a2,2,0,0,0-2,2v29.35l-10.28-30a2,2,0,0,0-1.89-1.36H165.54a2,2,0,0,0-2,2v77.86a2,2,0,0,0,2,2h16.71a2,2,0,0,0,2-2v-29L194.64,293a2,2,0,0,0,1.89,1.34h16.82a2,2,0,0,0,2-2V214.49a2,2,0,0,0-2-2Z"/><path class="cls-3" d="M222,293.35a1,1,0,0,1-1-1V214.49a1,1,0,0,1,1-1h17a1,1,0,0,1,1,1v61.9h17.72a1,1,0,0,1,1,1v15a1,1,0,0,1-1,1Z"/><path d="M239,214.49v62.9h18.72v15H222V214.49h17m0-2H222a2,2,0,0,0-2,2v77.86a2,2,0,0,0,2,2h35.75a2,2,0,0,0,2-2v-15a2,2,0,0,0-2-2H241v-60.9a2,2,0,0,0-2-2Z"/><rect class="cls-3" x="262.36" y="213.49" width="19.03" height="79.86" rx="1"/><path d="M280.39,214.49v77.86h-17V214.49h17m0-2h-17a2,2,0,0,0-2,2v77.86a2,2,0,0,0,2,2h17a2,2,0,0,0,2-2V214.49a2,2,0,0,0-2-2Z"/><path class="cls-3" d="M320,293.35a1,1,0,0,1-.94-.67l-12.34-35.29v35a1,1,0,0,1-1,1H289.06a1,1,0,0,1-1-1V214.49a1,1,0,0,1,1-1H306a1,1,0,0,1,.94.68l12.24,35.69V214.49a1,1,0,0,1,1-1h16.71a1,1,0,0,1,1,1v77.86a1,1,0,0,1-1,1Z"/><path d="M336.86,214.49v77.86H320l-12.48-35.68-1.79-6.8h-.32l.32,7.74v34.74H289.06V214.49H306l12.37,36.11,1.9,6.91h.22l-.32-7.85V214.49h16.71m0-2H320.15a2,2,0,0,0-2,2v29.35l-10.28-30a2,2,0,0,0-1.89-1.36H289.06a2,2,0,0,0-2,2v77.86a2,2,0,0,0,2,2h16.71a2,2,0,0,0,2-2v-29L318.16,293a2,2,0,0,0,1.88,1.34h16.82a2,2,0,0,0,2-2V214.49a2,2,0,0,0-2-2Z"/><path class="cls-3" d="M345.53,293.35a1,1,0,0,1-1-1V214.49a1,1,0,0,1,1-1h37.12a1,1,0,0,1,1,1v14.86a1,1,0,0,1-1,1h-19.1v14.33h16.77a1,1,0,0,1,1,1v14.23a1,1,0,0,1-1,1H363.55v15.37h19.73a1,1,0,0,1,1,1v15.07a1,1,0,0,1-1,1Z"/><path d="M382.65,214.49v14.87h-20.1v16.32h17.77v14.23H362.55v17.37h20.73v15.07H345.53V214.49h37.12m0-2H345.53a2,2,0,0,0-2,2v77.86a2,2,0,0,0,2,2h37.75a2,2,0,0,0,2-2V277.28a2,2,0,0,0-2-2H364.55V261.91h15.77a2,2,0,0,0,2-2V245.68a2,2,0,0,0-2-2H364.55V231.36h18.1a2,2,0,0,0,2-2V214.49a2,2,0,0,0-2-2Z"/><path class="cls-48" d="M144.18,252.91v16.73c0,10.29-5.05,12.45-9.3,12.45-3.47,0-9.31-1.61-9.31-12.45V252.91H114.89v14.34c0,16,6.35,23.44,20,23.44s20-7.45,20-23.44V252.91Z"/><polygon class="cls-49" points="178.89 252.91 179.08 257.75 179.08 289.22 168.72 289.22 168.72 252.91 178.89 252.91"/><polygon class="cls-50" points="210.17 252.91 210.17 289.22 198.79 289.22 187.1 255.76 186.33 252.91 192.19 252.91 194.31 260.64 200.25 260.64 199.93 252.91 210.17 252.91"/><polygon class="cls-51" points="254.59 280.52 254.59 289.22 225.19 289.22 225.19 252.91 235.87 252.91 235.87 280.52 254.59 280.52"/><rect class="cls-52" x="266.53" y="252.91" width="10.68" height="36.31"/><polygon class="cls-53" points="302.4 252.91 302.6 257.75 302.6 289.22 292.23 289.22 292.23 252.91 302.4 252.91"/><polygon class="cls-54" points="333.69 252.91 333.69 289.22 322.31 289.22 310.61 255.76 309.85 252.91 315.71 252.91 317.82 260.64 323.77 260.64 323.45 252.91 333.69 252.91"/><polygon class="cls-55" points="380.11 280.41 380.11 289.22 348.7 289.22 348.7 252.91 377.15 252.91 377.15 256.76 359.38 256.76 359.38 280.41 380.11 280.41"/></g></g></g></svg>